STARTFONT 2.1
FONT -FontForge-IBM Plex Mono Medium-Medium-R-Normal--12-720-12-12-P-65-ISO10646-1
SIZE 72 12 12
FONTBOUNDINGBOX 11 19 -3 -4
COMMENT "Generated by fontforge, http://fontforge.sourceforge.net"
COMMENT "Copyright 2017 IBM Corp. All rights reserved."
STARTPROPERTIES 41
FOUNDRY "FontForge"
FAMILY_NAME "IBM Plex Mono Medium"
WEIGHT_NAME "Medium"
SLANT "R"
SETWIDTH_NAME "Normal"
ADD_STYLE_NAME ""
PIXEL_SIZE 12
POINT_SIZE 720
RESOLUTION_X 12
RESOLUTION_Y 12
SPACING "P"
AVERAGE_WIDTH 65
CHARSET_REGISTRY "ISO10646"
CHARSET_ENCODING "1"
FONTNAME_REGISTRY ""
CHARSET_COLLECTIONS "ISO8859-2 ISO8859-5 ISO8859-9 ISO8859-4 ISO10646-1"
FONT_NAME "IBMPlexMono-Medium"
FACE_NAME "IBM Plex Mono Medium"
COPYRIGHT "Copyright 2017 IBM Corp. All rights reserved."
FONT_VERSION "2.000"
FONT_ASCENT 9
FONT_DESCENT 3
UNDERLINE_POSITION -2
UNDERLINE_THICKNESS 1
X_HEIGHT 5
CAP_HEIGHT 7
DEFAULT_CHAR 1
RAW_ASCENT 780
RAW_DESCENT 220
NORM_SPACE 7
RELATIVE_WEIGHT 50
RELATIVE_SETWIDTH 50
SUPERSCRIPT_X 0
SUPERSCRIPT_Y 4
SUPERSCRIPT_SIZE 7
SUBSCRIPT_X 0
SUBSCRIPT_Y 0
SUBSCRIPT_SIZE 7
FIGURE_WIDTH 7
AVG_LOWERCASE_WIDTH 70
AVG_UPPERCASE_WIDTH 70
ENDPROPERTIES
CHARS 814
STARTCHAR .null
ENCODING 0
SWIDTH 0 0
DWIDTH 0 0
BBX 1 1 0 0
BITMAP
00
ENDCHAR
STARTCHAR uni000D
ENCODING 13
SWIDTH 600 0
DWIDTH 7 0
BBX 1 1 0 0
BITMAP
00
ENDCHAR
STARTCHAR space
ENCODING 32
SWIDTH 600 0
DWIDTH 7 0
BBX 1 1 0 0
BITMAP
00
ENDCHAR
STARTCHAR exclam
ENCODING 33
SWIDTH 600 0
DWIDTH 7 0
BBX 3 8 2 0
BITMAP
40
40
40
40
40
00
40
E0
ENDCHAR
STARTCHAR quotedbl
ENCODING 34
SWIDTH 600 0
DWIDTH 7 0
BBX 3 4 2 5
BITMAP
A0
A0
A0
A0
ENDCHAR
STARTCHAR numbersign
ENCODING 35
SWIDTH 600 0
DWIDTH 7 0
BBX 7 8 0 0
BITMAP
34
24
EE
28
28
EE
48
58
ENDCHAR
STARTCHAR dollar
ENCODING 36
SWIDTH 600 0
DWIDTH 7 0
BBX 7 10 0 -1
BITMAP
10
3C
56
50
70
1C
16
54
FC
10
ENDCHAR
STARTCHAR percent
ENCODING 37
SWIDTH 600 0
DWIDTH 7 0
BBX 7 8 0 0
BITMAP
62
94
98
60
0C
32
52
8C
ENDCHAR
STARTCHAR ampersand
ENCODING 38
SWIDTH 600 0
DWIDTH 7 0
BBX 7 8 0 0
BITMAP
38
48
40
26
74
9C
CC
76
ENDCHAR
STARTCHAR quotesingle
ENCODING 39
SWIDTH 600 0
DWIDTH 7 0
BBX 1 4 3 5
BITMAP
80
80
80
80
ENDCHAR
STARTCHAR parenleft
ENCODING 40
SWIDTH 600 0
DWIDTH 7 0
BBX 4 11 2 -2
BITMAP
30
60
40
C0
80
80
80
C0
40
60
30
ENDCHAR
STARTCHAR parenright
ENCODING 41
SWIDTH 600 0
DWIDTH 7 0
BBX 4 11 1 -2
BITMAP
C0
60
20
30
10
10
10
30
20
60
C0
ENDCHAR
STARTCHAR asterisk
ENCODING 42
SWIDTH 600 0
DWIDTH 7 0
BBX 7 6 0 1
BITMAP
10
10
FE
10
28
44
ENDCHAR
STARTCHAR plus
ENCODING 43
SWIDTH 600 0
DWIDTH 7 0
BBX 5 5 1 1
BITMAP
20
20
F8
20
20
ENDCHAR
STARTCHAR comma
ENCODING 44
SWIDTH 600 0
DWIDTH 7 0
BBX 3 4 2 -2
BITMAP
60
40
C0
80
ENDCHAR
STARTCHAR hyphen
ENCODING 45
SWIDTH 600 0
DWIDTH 7 0
BBX 3 1 2 3
BITMAP
E0
ENDCHAR
STARTCHAR period
ENCODING 46
SWIDTH 600 0
DWIDTH 7 0
BBX 3 2 2 0
BITMAP
40
E0
ENDCHAR
STARTCHAR slash
ENCODING 47
SWIDTH 600 0
DWIDTH 7 0
BBX 5 11 1 -2
BITMAP
08
18
10
10
20
20
20
40
40
C0
80
ENDCHAR
STARTCHAR zero
ENCODING 48
SWIDTH 600 0
DWIDTH 7 0
BBX 7 8 0 0
BITMAP
38
44
44
D6
D6
44
44
38
ENDCHAR
STARTCHAR one
ENCODING 49
SWIDTH 600 0
DWIDTH 7 0
BBX 7 8 0 0
BITMAP
38
78
D8
18
18
18
18
7E
ENDCHAR
STARTCHAR two
ENCODING 50
SWIDTH 600 0
DWIDTH 7 0
BBX 5 8 1 0
BITMAP
70
88
08
18
30
60
C0
F8
ENDCHAR
STARTCHAR three
ENCODING 51
SWIDTH 600 0
DWIDTH 7 0
BBX 6 8 0 0
BITMAP
78
44
04
38
04
04
44
F8
ENDCHAR
STARTCHAR four
ENCODING 52
SWIDTH 600 0
DWIDTH 7 0
BBX 7 8 0 0
BITMAP
1C
1C
2C
4C
4C
FE
0C
0C
ENDCHAR
STARTCHAR five
ENCODING 53
SWIDTH 600 0
DWIDTH 7 0
BBX 5 8 1 0
BITMAP
F8
80
80
B8
C8
08
88
70
ENDCHAR
STARTCHAR six
ENCODING 54
SWIDTH 600 0
DWIDTH 7 0
BBX 6 8 1 0
BITMAP
30
40
C0
F8
88
8C
88
70
ENDCHAR
STARTCHAR seven
ENCODING 55
SWIDTH 600 0
DWIDTH 7 0
BBX 5 8 1 0
BITMAP
F8
88
18
10
30
20
20
60
ENDCHAR
STARTCHAR eight
ENCODING 56
SWIDTH 600 0
DWIDTH 7 0
BBX 7 8 0 0
BITMAP
7C
44
44
38
44
C6
44
38
ENDCHAR
STARTCHAR nine
ENCODING 57
SWIDTH 600 0
DWIDTH 7 0
BBX 6 8 0 0
BITMAP
38
44
C4
44
7C
0C
08
30
ENDCHAR
STARTCHAR colon
ENCODING 58
SWIDTH 600 0
DWIDTH 7 0
BBX 3 6 2 0
BITMAP
40
E0
00
00
40
E0
ENDCHAR
STARTCHAR semicolon
ENCODING 59
SWIDTH 600 0
DWIDTH 7 0
BBX 3 8 2 -2
BITMAP
40
E0
00
00
60
40
C0
80
ENDCHAR
STARTCHAR less
ENCODING 60
SWIDTH 600 0
DWIDTH 7 0
BBX 5 7 1 0
BITMAP
08
38
60
80
60
38
08
ENDCHAR
STARTCHAR equal
ENCODING 61
SWIDTH 600 0
DWIDTH 7 0
BBX 5 3 1 2
BITMAP
F8
00
F8
ENDCHAR
STARTCHAR greater
ENCODING 62
SWIDTH 600 0
DWIDTH 7 0
BBX 5 7 1 0
BITMAP
80
E0
30
08
30
E0
80
ENDCHAR
STARTCHAR question
ENCODING 63
SWIDTH 600 0
DWIDTH 7 0
BBX 5 8 1 0
BITMAP
70
88
08
30
20
00
60
60
ENDCHAR
STARTCHAR at
ENCODING 64
SWIDTH 600 0
DWIDTH 7 0
BBX 5 9 1 -1
BITMAP
70
88
B8
A8
A8
A8
B8
80
70
ENDCHAR
STARTCHAR A
ENCODING 65
SWIDTH 600 0
DWIDTH 7 0
BBX 7 8 0 0
BITMAP
38
28
28
28
6C
7C
44
C6
ENDCHAR
STARTCHAR B
ENCODING 66
SWIDTH 600 0
DWIDTH 7 0
BBX 5 8 1 0
BITMAP
F8
88
88
F0
88
88
88
F8
ENDCHAR
STARTCHAR C
ENCODING 67
SWIDTH 600 0
DWIDTH 7 0
BBX 5 8 1 0
BITMAP
78
C8
80
80
80
80
C8
78
ENDCHAR
STARTCHAR D
ENCODING 68
SWIDTH 600 0
DWIDTH 7 0
BBX 6 8 1 0
BITMAP
F0
88
88
8C
8C
88
88
F0
ENDCHAR
STARTCHAR E
ENCODING 69
SWIDTH 600 0
DWIDTH 7 0
BBX 5 8 1 0
BITMAP
F8
80
80
F8
80
80
80
F8
ENDCHAR
STARTCHAR F
ENCODING 70
SWIDTH 600 0
DWIDTH 7 0
BBX 5 8 1 0
BITMAP
F8
80
80
F8
80
80
80
80
ENDCHAR
STARTCHAR G
ENCODING 71
SWIDTH 600 0
DWIDTH 7 0
BBX 6 8 0 0
BITMAP
38
44
40
C0
DC
44
44
3C
ENDCHAR
STARTCHAR H
ENCODING 72
SWIDTH 600 0
DWIDTH 7 0
BBX 5 8 1 0
BITMAP
88
88
88
F8
88
88
88
88
ENDCHAR
STARTCHAR I
ENCODING 73
SWIDTH 600 0
DWIDTH 7 0
BBX 5 8 1 0
BITMAP
F8
20
20
20
20
20
20
F8
ENDCHAR
STARTCHAR J
ENCODING 74
SWIDTH 600 0
DWIDTH 7 0
BBX 5 8 1 0
BITMAP
78
18
18
18
18
18
98
F0
ENDCHAR
STARTCHAR K
ENCODING 75
SWIDTH 600 0
DWIDTH 7 0
BBX 6 8 1 0
BITMAP
8C
98
B0
A0
F0
90
98
8C
ENDCHAR
STARTCHAR L
ENCODING 76
SWIDTH 600 0
DWIDTH 7 0
BBX 5 8 1 0
BITMAP
C0
C0
C0
C0
C0
C0
C0
F8
ENDCHAR
STARTCHAR M
ENCODING 77
SWIDTH 600 0
DWIDTH 7 0
BBX 5 8 1 0
BITMAP
88
D8
D8
F8
A8
A8
88
88
ENDCHAR
STARTCHAR N
ENCODING 78
SWIDTH 600 0
DWIDTH 7 0
BBX 5 8 1 0
BITMAP
C8
C8
C8
A8
A8
B8
98
98
ENDCHAR
STARTCHAR O
ENCODING 79
SWIDTH 600 0
DWIDTH 7 0
BBX 7 8 0 0
BITMAP
38
44
44
C6
C6
44
44
38
ENDCHAR
STARTCHAR P
ENCODING 80
SWIDTH 600 0
DWIDTH 7 0
BBX 5 8 1 0
BITMAP
F8
88
88
88
F8
80
80
80
ENDCHAR
STARTCHAR Q
ENCODING 81
SWIDTH 600 0
DWIDTH 7 0
BBX 7 10 0 -2
BITMAP
38
44
44
C6
C6
44
44
38
10
1C
ENDCHAR
STARTCHAR R
ENCODING 82
SWIDTH 600 0
DWIDTH 7 0
BBX 6 8 1 0
BITMAP
F8
88
88
8C
F8
90
98
8C
ENDCHAR
STARTCHAR S
ENCODING 83
SWIDTH 600 0
DWIDTH 7 0
BBX 6 8 0 0
BITMAP
3C
44
40
70
0C
04
44
F8
ENDCHAR
STARTCHAR T
ENCODING 84
SWIDTH 600 0
DWIDTH 7 0
BBX 7 8 0 0
BITMAP
FE
10
10
10
10
10
10
10
ENDCHAR
STARTCHAR U
ENCODING 85
SWIDTH 600 0
DWIDTH 7 0
BBX 5 8 1 0
BITMAP
88
88
88
88
88
88
88
70
ENDCHAR
STARTCHAR V
ENCODING 86
SWIDTH 600 0
DWIDTH 7 0
BBX 7 8 0 0
BITMAP
C6
44
44
6C
28
28
28
38
ENDCHAR
STARTCHAR W
ENCODING 87
SWIDTH 600 0
DWIDTH 7 0
BBX 7 8 0 0
BITMAP
82
82
D2
F6
6C
6C
6C
6C
ENDCHAR
STARTCHAR X
ENCODING 88
SWIDTH 600 0
DWIDTH 7 0
BBX 7 8 0 0
BITMAP
C6
6C
28
38
38
28
4C
C6
ENDCHAR
STARTCHAR Y
ENCODING 89
SWIDTH 600 0
DWIDTH 7 0
BBX 7 8 0 0
BITMAP
C6
44
6C
28
38
10
10
10
ENDCHAR
STARTCHAR Z
ENCODING 90
SWIDTH 600 0
DWIDTH 7 0
BBX 6 8 0 0
BITMAP
7C
0C
08
18
30
20
40
FC
ENDCHAR
STARTCHAR bracketleft
ENCODING 91
SWIDTH 600 0
DWIDTH 7 0
BBX 4 11 2 -2
BITMAP
F0
80
80
80
80
80
80
80
80
80
F0
ENDCHAR
STARTCHAR backslash
ENCODING 92
SWIDTH 600 0
DWIDTH 7 0
BBX 5 11 1 -2
BITMAP
80
C0
40
40
20
20
20
10
10
18
08
ENDCHAR
STARTCHAR bracketright
ENCODING 93
SWIDTH 600 0
DWIDTH 7 0
BBX 4 11 1 -2
BITMAP
F0
10
10
10
10
10
10
10
10
10
F0
ENDCHAR
STARTCHAR asciicircum
ENCODING 94
SWIDTH 600 0
DWIDTH 7 0
BBX 7 5 0 3
BITMAP
10
28
6C
44
C6
ENDCHAR
STARTCHAR underscore
ENCODING 95
SWIDTH 600 0
DWIDTH 7 0
BBX 5 1 1 -2
BITMAP
F8
ENDCHAR
STARTCHAR grave
ENCODING 96
SWIDTH 600 0
DWIDTH 7 0
BBX 2 3 2 7
BITMAP
80
C0
40
ENDCHAR
STARTCHAR a
ENCODING 97
SWIDTH 600 0
DWIDTH 7 0
BBX 6 6 1 0
BITMAP
F0
98
08
F8
88
FC
ENDCHAR
STARTCHAR b
ENCODING 98
SWIDTH 600 0
DWIDTH 7 0
BBX 6 9 1 0
BITMAP
80
80
80
B8
C8
88
8C
88
F8
ENDCHAR
STARTCHAR c
ENCODING 99
SWIDTH 600 0
DWIDTH 7 0
BBX 5 6 1 0
BITMAP
70
88
80
80
88
70
ENDCHAR
STARTCHAR d
ENCODING 100
SWIDTH 600 0
DWIDTH 7 0
BBX 6 9 0 0
BITMAP
04
04
04
74
4C
44
C4
44
7C
ENDCHAR
STARTCHAR e
ENCODING 101
SWIDTH 600 0
DWIDTH 7 0
BBX 5 6 1 0
BITMAP
70
88
F8
80
88
70
ENDCHAR
STARTCHAR f
ENCODING 102
SWIDTH 600 0
DWIDTH 7 0
BBX 5 9 1 0
BITMAP
38
20
20
F8
20
20
20
20
F8
ENDCHAR
STARTCHAR g
ENCODING 103
SWIDTH 600 0
DWIDTH 7 0
BBX 6 9 1 -2
BITMAP
0C
70
88
88
70
80
78
8C
F8
ENDCHAR
STARTCHAR h
ENCODING 104
SWIDTH 600 0
DWIDTH 7 0
BBX 5 9 1 0
BITMAP
80
80
80
B0
C8
88
88
88
88
ENDCHAR
STARTCHAR i
ENCODING 105
SWIDTH 600 0
DWIDTH 7 0
BBX 6 9 1 0
BITMAP
30
30
00
F0
30
30
30
30
FC
ENDCHAR
STARTCHAR j
ENCODING 106
SWIDTH 600 0
DWIDTH 7 0
BBX 4 11 1 -2
BITMAP
10
10
00
F0
10
10
10
10
10
10
F0
ENDCHAR
STARTCHAR k
ENCODING 107
SWIDTH 600 0
DWIDTH 7 0
BBX 6 9 1 0
BITMAP
80
80
80
8C
B0
E0
F0
98
8C
ENDCHAR
STARTCHAR l
ENCODING 108
SWIDTH 600 0
DWIDTH 7 0
BBX 5 9 1 0
BITMAP
E0
20
20
20
20
20
20
20
F8
ENDCHAR
STARTCHAR m
ENCODING 109
SWIDTH 600 0
DWIDTH 7 0
BBX 7 6 0 0
BITMAP
FC
D6
D6
D6
D6
D6
ENDCHAR
STARTCHAR n
ENCODING 110
SWIDTH 600 0
DWIDTH 7 0
BBX 5 6 1 0
BITMAP
B0
C8
88
88
88
88
ENDCHAR
STARTCHAR o
ENCODING 111
SWIDTH 600 0
DWIDTH 7 0
BBX 5 6 1 0
BITMAP
70
88
88
88
88
70
ENDCHAR
STARTCHAR p
ENCODING 112
SWIDTH 600 0
DWIDTH 7 0
BBX 6 8 1 -2
BITMAP
B8
C8
88
8C
88
F8
80
80
ENDCHAR
STARTCHAR q
ENCODING 113
SWIDTH 600 0
DWIDTH 7 0
BBX 6 8 0 -2
BITMAP
74
4C
44
C4
44
7C
04
04
ENDCHAR
STARTCHAR r
ENCODING 114
SWIDTH 600 0
DWIDTH 7 0
BBX 6 6 1 0
BITMAP
EC
70
60
60
60
F8
ENDCHAR
STARTCHAR s
ENCODING 115
SWIDTH 600 0
DWIDTH 7 0
BBX 5 6 1 0
BITMAP
78
88
E0
38
88
F8
ENDCHAR
STARTCHAR t
ENCODING 116
SWIDTH 600 0
DWIDTH 7 0
BBX 6 8 0 0
BITMAP
30
30
FC
30
30
30
30
1C
ENDCHAR
STARTCHAR u
ENCODING 117
SWIDTH 600 0
DWIDTH 7 0
BBX 5 6 1 0
BITMAP
88
88
88
88
88
F8
ENDCHAR
STARTCHAR v
ENCODING 118
SWIDTH 600 0
DWIDTH 7 0
BBX 7 6 0 0
BITMAP
C6
44
6C
28
28
10
ENDCHAR
STARTCHAR w
ENCODING 119
SWIDTH 600 0
DWIDTH 7 0
BBX 7 6 0 0
BITMAP
92
B2
6E
6C
6C
6C
ENDCHAR
STARTCHAR x
ENCODING 120
SWIDTH 600 0
DWIDTH 7 0
BBX 7 6 0 0
BITMAP
44
28
38
38
28
C6
ENDCHAR
STARTCHAR y
ENCODING 121
SWIDTH 600 0
DWIDTH 7 0
BBX 7 8 0 -2
BITMAP
C6
44
6C
28
38
10
10
60
ENDCHAR
STARTCHAR z
ENCODING 122
SWIDTH 600 0
DWIDTH 7 0
BBX 5 6 1 0
BITMAP
F8
18
30
60
C0
F8
ENDCHAR
STARTCHAR braceleft
ENCODING 123
SWIDTH 600 0
DWIDTH 7 0
BBX 5 11 1 -2
BITMAP
38
20
20
20
10
E0
30
20
20
20
38
ENDCHAR
STARTCHAR bar
ENCODING 124
SWIDTH 600 0
DWIDTH 7 0
BBX 1 11 3 -2
BITMAP
80
80
80
80
80
80
80
80
80
80
80
ENDCHAR
STARTCHAR braceright
ENCODING 125
SWIDTH 600 0
DWIDTH 7 0
BBX 5 11 1 -2
BITMAP
E0
20
20
20
40
38
60
20
20
20
E0
ENDCHAR
STARTCHAR asciitilde
ENCODING 126
SWIDTH 600 0
DWIDTH 7 0
BBX 7 2 0 3
BITMAP
76
DC
ENDCHAR
STARTCHAR uni00A0
ENCODING 160
SWIDTH 600 0
DWIDTH 7 0
BBX 1 1 0 0
BITMAP
00
ENDCHAR
STARTCHAR exclamdown
ENCODING 161
SWIDTH 600 0
DWIDTH 7 0
BBX 3 9 2 -3
BITMAP
40
E0
00
40
40
40
40
40
40
ENDCHAR
STARTCHAR cent
ENCODING 162
SWIDTH 600 0
DWIDTH 7 0
BBX 5 8 1 -1
BITMAP
20
70
A8
A0
A0
A8
78
20
ENDCHAR
STARTCHAR sterling
ENCODING 163
SWIDTH 600 0
DWIDTH 7 0
BBX 7 8 0 0
BITMAP
3C
66
40
60
F8
20
60
7C
ENDCHAR
STARTCHAR yen
ENCODING 165
SWIDTH 600 0
DWIDTH 7 0
BBX 7 8 0 0
BITMAP
C6
44
6C
28
7C
10
10
7C
ENDCHAR
STARTCHAR brokenbar
ENCODING 166
SWIDTH 600 0
DWIDTH 7 0
BBX 1 11 3 -2
BITMAP
80
80
80
80
00
00
80
80
80
80
80
ENDCHAR
STARTCHAR section
ENCODING 167
SWIDTH 600 0
DWIDTH 7 0
BBX 5 10 1 -2
BITMAP
78
90
C0
70
88
88
70
18
88
F0
ENDCHAR
STARTCHAR dieresis
ENCODING 168
SWIDTH 600 0
DWIDTH 7 0
BBX 5 2 1 7
BITMAP
50
D8
ENDCHAR
STARTCHAR copyright
ENCODING 169
SWIDTH 600 0
DWIDTH 7 0
BBX 7 8 0 0
BITMAP
38
44
BA
A2
A2
BA
44
38
ENDCHAR
STARTCHAR ordfeminine
ENCODING 170
SWIDTH 600 0
DWIDTH 7 0
BBX 5 4 1 4
BITMAP
70
90
70
F8
ENDCHAR
STARTCHAR guillemotleft
ENCODING 171
SWIDTH 600 0
DWIDTH 7 0
BBX 5 5 1 1
BITMAP
48
F8
90
D8
68
ENDCHAR
STARTCHAR logicalnot
ENCODING 172
SWIDTH 600 0
DWIDTH 7 0
BBX 5 3 1 1
BITMAP
F8
08
08
ENDCHAR
STARTCHAR uni00AD
ENCODING 173
SWIDTH 600 0
DWIDTH 7 0
BBX 3 1 2 3
BITMAP
E0
ENDCHAR
STARTCHAR registered
ENCODING 174
SWIDTH 600 0
DWIDTH 7 0
BBX 5 5 1 3
BITMAP
70
88
A8
B8
70
ENDCHAR
STARTCHAR macron
ENCODING 175
SWIDTH 600 0
DWIDTH 7 0
BBX 3 1 2 7
BITMAP
E0
ENDCHAR
STARTCHAR degree
ENCODING 176
SWIDTH 600 0
DWIDTH 7 0
BBX 5 4 1 4
BITMAP
70
88
88
70
ENDCHAR
STARTCHAR plusminus
ENCODING 177
SWIDTH 600 0
DWIDTH 7 0
BBX 5 7 1 0
BITMAP
20
20
F8
20
20
00
F8
ENDCHAR
STARTCHAR twosuperior
ENCODING 178
SWIDTH 600 0
DWIDTH 7 0
BBX 3 4 2 4
BITMAP
E0
A0
40
E0
ENDCHAR
STARTCHAR threesuperior
ENCODING 179
SWIDTH 600 0
DWIDTH 7 0
BBX 3 4 2 4
BITMAP
E0
A0
C0
E0
ENDCHAR
STARTCHAR acute
ENCODING 180
SWIDTH 600 0
DWIDTH 7 0
BBX 2 3 3 7
BITMAP
80
C0
80
ENDCHAR
STARTCHAR mu
ENCODING 181
SWIDTH 600 0
DWIDTH 7 0
BBX 5 8 1 -2
BITMAP
88
88
88
88
88
F8
80
80
ENDCHAR
STARTCHAR paragraph
ENCODING 182
SWIDTH 600 0
DWIDTH 7 0
BBX 6 10 0 -2
BITMAP
7C
74
F4
74
74
14
14
14
14
14
ENDCHAR
STARTCHAR periodcentered
ENCODING 183
SWIDTH 600 0
DWIDTH 7 0
BBX 3 2 2 3
BITMAP
40
E0
ENDCHAR
STARTCHAR cedilla
ENCODING 184
SWIDTH 600 0
DWIDTH 7 0
BBX 3 3 2 -3
BITMAP
40
20
E0
ENDCHAR
STARTCHAR onesuperior
ENCODING 185
SWIDTH 600 0
DWIDTH 7 0
BBX 3 4 2 4
BITMAP
C0
40
40
E0
ENDCHAR
STARTCHAR ordmasculine
ENCODING 186
SWIDTH 600 0
DWIDTH 7 0
BBX 5 4 1 4
BITMAP
70
50
D8
70
ENDCHAR
STARTCHAR guillemotright
ENCODING 187
SWIDTH 600 0
DWIDTH 7 0
BBX 5 5 1 1
BITMAP
A0
D8
48
D8
A0
ENDCHAR
STARTCHAR onequarter
ENCODING 188
SWIDTH 600 0
DWIDTH 7 0
BBX 7 8 0 0
BITMAP
C2
44
48
E0
04
2C
4E
84
ENDCHAR
STARTCHAR onehalf
ENCODING 189
SWIDTH 600 0
DWIDTH 7 0
BBX 7 8 0 0
BITMAP
C2
44
48
E0
0C
2A
4C
8E
ENDCHAR
STARTCHAR threequarters
ENCODING 190
SWIDTH 600 0
DWIDTH 7 0
BBX 7 8 0 0
BITMAP
62
C4
A8
60
04
2C
4E
84
ENDCHAR
STARTCHAR questiondown
ENCODING 191
SWIDTH 600 0
DWIDTH 7 0
BBX 5 8 1 -2
BITMAP
30
30
00
20
60
80
88
70
ENDCHAR
STARTCHAR Agrave
ENCODING 192
SWIDTH 600 0
DWIDTH 7 0
BBX 7 12 0 0
BITMAP
20
30
10
00
38
28
28
28
6C
7C
44
C6
ENDCHAR
STARTCHAR Aacute
ENCODING 193
SWIDTH 600 0
DWIDTH 7 0
BBX 7 12 0 0
BITMAP
10
18
10
00
38
28
28
28
6C
7C
44
C6
ENDCHAR
STARTCHAR Acircumflex
ENCODING 194
SWIDTH 600 0
DWIDTH 7 0
BBX 7 11 0 0
BITMAP
38
4C
00
38
28
28
28
6C
7C
44
C6
ENDCHAR
STARTCHAR Atilde
ENCODING 195
SWIDTH 600 0
DWIDTH 7 0
BBX 7 11 0 0
BITMAP
38
5C
00
38
28
28
28
6C
7C
44
C6
ENDCHAR
STARTCHAR Adieresis
ENCODING 196
SWIDTH 600 0
DWIDTH 7 0
BBX 7 11 0 0
BITMAP
28
6C
00
38
28
28
28
6C
7C
44
C6
ENDCHAR
STARTCHAR Aring
ENCODING 197
SWIDTH 600 0
DWIDTH 7 0
BBX 7 12 0 0
BITMAP
38
28
38
00
38
28
28
28
6C
7C
44
C6
ENDCHAR
STARTCHAR AE
ENCODING 198
SWIDTH 600 0
DWIDTH 7 0
BBX 7 8 0 0
BITMAP
3E
38
38
7E
58
78
D8
9E
ENDCHAR
STARTCHAR Ccedilla
ENCODING 199
SWIDTH 600 0
DWIDTH 7 0
BBX 6 12 1 -4
BITMAP
78
C8
84
80
80
80
CC
78
20
30
10
70
ENDCHAR
STARTCHAR Egrave
ENCODING 200
SWIDTH 600 0
DWIDTH 7 0
BBX 5 12 1 0
BITMAP
40
60
20
00
F8
80
80
F8
80
80
80
F8
ENDCHAR
STARTCHAR Eacute
ENCODING 201
SWIDTH 600 0
DWIDTH 7 0
BBX 5 12 1 0
BITMAP
20
30
20
00
F8
80
80
F8
80
80
80
F8
ENDCHAR
STARTCHAR Ecircumflex
ENCODING 202
SWIDTH 600 0
DWIDTH 7 0
BBX 5 11 1 0
BITMAP
70
C8
00
F8
80
80
F8
80
80
80
F8
ENDCHAR
STARTCHAR Edieresis
ENCODING 203
SWIDTH 600 0
DWIDTH 7 0
BBX 5 11 1 0
BITMAP
58
58
00
F8
80
80
F8
80
80
80
F8
ENDCHAR
STARTCHAR Igrave
ENCODING 204
SWIDTH 600 0
DWIDTH 7 0
BBX 5 12 1 0
BITMAP
40
60
20
00
F8
20
20
20
20
20
20
F8
ENDCHAR
STARTCHAR Iacute
ENCODING 205
SWIDTH 600 0
DWIDTH 7 0
BBX 5 12 1 0
BITMAP
20
30
20
00
F8
20
20
20
20
20
20
F8
ENDCHAR
STARTCHAR Icircumflex
ENCODING 206
SWIDTH 600 0
DWIDTH 7 0
BBX 5 11 1 0
BITMAP
70
98
00
F8
20
20
20
20
20
20
F8
ENDCHAR
STARTCHAR Idieresis
ENCODING 207
SWIDTH 600 0
DWIDTH 7 0
BBX 5 11 1 0
BITMAP
50
D8
00
F8
20
20
20
20
20
20
F8
ENDCHAR
STARTCHAR Eth
ENCODING 208
SWIDTH 600 0
DWIDTH 7 0
BBX 7 8 0 0
BITMAP
78
44
44
F6
46
44
44
78
ENDCHAR
STARTCHAR Ntilde
ENCODING 209
SWIDTH 600 0
DWIDTH 7 0
BBX 5 11 1 0
BITMAP
70
B8
00
C8
C8
C8
A8
A8
B8
98
98
ENDCHAR
STARTCHAR Ograve
ENCODING 210
SWIDTH 600 0
DWIDTH 7 0
BBX 7 12 0 0
BITMAP
20
30
10
00
38
44
44
C6
C6
44
44
38
ENDCHAR
STARTCHAR Oacute
ENCODING 211
SWIDTH 600 0
DWIDTH 7 0
BBX 7 12 0 0
BITMAP
10
18
10
00
38
44
44
C6
C6
44
44
38
ENDCHAR
STARTCHAR Ocircumflex
ENCODING 212
SWIDTH 600 0
DWIDTH 7 0
BBX 7 11 0 0
BITMAP
38
4C
00
38
44
44
C6
C6
44
44
38
ENDCHAR
STARTCHAR Otilde
ENCODING 213
SWIDTH 600 0
DWIDTH 7 0
BBX 7 11 0 0
BITMAP
38
5C
00
38
44
44
C6
C6
44
44
38
ENDCHAR
STARTCHAR Odieresis
ENCODING 214
SWIDTH 600 0
DWIDTH 7 0
BBX 7 11 0 0
BITMAP
28
6C
00
38
44
44
C6
C6
44
44
38
ENDCHAR
STARTCHAR multiply
ENCODING 215
SWIDTH 600 0
DWIDTH 7 0
BBX 5 5 1 1
BITMAP
88
50
20
50
88
ENDCHAR
STARTCHAR Oslash
ENCODING 216
SWIDTH 600 0
DWIDTH 7 0
BBX 7 10 0 -1
BITMAP
04
3E
44
4C
D6
D6
64
44
78
80
ENDCHAR
STARTCHAR Ugrave
ENCODING 217
SWIDTH 600 0
DWIDTH 7 0
BBX 5 12 1 0
BITMAP
40
60
20
00
88
88
88
88
88
88
88
70
ENDCHAR
STARTCHAR Uacute
ENCODING 218
SWIDTH 600 0
DWIDTH 7 0
BBX 5 12 1 0
BITMAP
20
30
20
00
88
88
88
88
88
88
88
70
ENDCHAR
STARTCHAR Ucircumflex
ENCODING 219
SWIDTH 600 0
DWIDTH 7 0
BBX 5 11 1 0
BITMAP
70
98
00
88
88
88
88
88
88
88
70
ENDCHAR
STARTCHAR Udieresis
ENCODING 220
SWIDTH 600 0
DWIDTH 7 0
BBX 5 11 1 0
BITMAP
50
D8
00
88
88
88
88
88
88
88
70
ENDCHAR
STARTCHAR Yacute
ENCODING 221
SWIDTH 600 0
DWIDTH 7 0
BBX 7 12 0 0
BITMAP
10
18
10
00
C6
44
6C
28
38
10
10
10
ENDCHAR
STARTCHAR Thorn
ENCODING 222
SWIDTH 600 0
DWIDTH 7 0
BBX 5 8 1 0
BITMAP
80
80
F8
88
88
F8
80
80
ENDCHAR
STARTCHAR germandbls
ENCODING 223
SWIDTH 600 0
DWIDTH 7 0
BBX 6 11 1 -2
BITMAP
E0
80
80
F8
88
90
B8
8C
8C
0C
38
ENDCHAR
STARTCHAR agrave
ENCODING 224
SWIDTH 600 0
DWIDTH 7 0
BBX 6 10 1 0
BITMAP
40
40
20
00
F0
98
08
F8
88
FC
ENDCHAR
STARTCHAR aacute
ENCODING 225
SWIDTH 600 0
DWIDTH 7 0
BBX 6 10 1 0
BITMAP
20
30
20
00
F0
98
08
F8
88
FC
ENDCHAR
STARTCHAR acircumflex
ENCODING 226
SWIDTH 600 0
DWIDTH 7 0
BBX 6 9 1 0
BITMAP
60
90
00
F0
98
08
F8
88
FC
ENDCHAR
STARTCHAR atilde
ENCODING 227
SWIDTH 600 0
DWIDTH 7 0
BBX 6 9 1 0
BITMAP
50
B0
00
F0
98
08
F8
88
FC
ENDCHAR
STARTCHAR adieresis
ENCODING 228
SWIDTH 600 0
DWIDTH 7 0
BBX 6 9 1 0
BITMAP
D0
D0
00
F0
98
08
F8
88
FC
ENDCHAR
STARTCHAR aring
ENCODING 229
SWIDTH 600 0
DWIDTH 7 0
BBX 6 10 1 0
BITMAP
70
50
70
00
F0
98
08
F8
88
FC
ENDCHAR
STARTCHAR ae
ENCODING 230
SWIDTH 600 0
DWIDTH 7 0
BBX 7 6 0 0
BITMAP
6C
92
1E
F0
92
EC
ENDCHAR
STARTCHAR ccedilla
ENCODING 231
SWIDTH 600 0
DWIDTH 7 0
BBX 5 10 1 -4
BITMAP
70
88
80
80
88
78
20
30
10
70
ENDCHAR
STARTCHAR egrave
ENCODING 232
SWIDTH 600 0
DWIDTH 7 0
BBX 5 10 1 0
BITMAP
40
60
20
00
70
88
F8
80
88
70
ENDCHAR
STARTCHAR eacute
ENCODING 233
SWIDTH 600 0
DWIDTH 7 0
BBX 5 10 1 0
BITMAP
20
30
20
00
70
88
F8
80
88
70
ENDCHAR
STARTCHAR ecircumflex
ENCODING 234
SWIDTH 600 0
DWIDTH 7 0
BBX 5 9 1 0
BITMAP
70
98
00
70
88
F8
80
88
70
ENDCHAR
STARTCHAR edieresis
ENCODING 235
SWIDTH 600 0
DWIDTH 7 0
BBX 5 9 1 0
BITMAP
50
58
00
70
88
F8
80
88
70
ENDCHAR
STARTCHAR igrave
ENCODING 236
SWIDTH 600 0
DWIDTH 7 0
BBX 6 10 1 0
BITMAP
20
60
30
00
F0
30
30
30
30
FC
ENDCHAR
STARTCHAR iacute
ENCODING 237
SWIDTH 600 0
DWIDTH 7 0
BBX 6 10 1 0
BITMAP
20
10
20
00
F0
30
30
30
30
FC
ENDCHAR
STARTCHAR icircumflex
ENCODING 238
SWIDTH 600 0
DWIDTH 7 0
BBX 6 9 1 0
BITMAP
30
48
00
F0
30
30
30
30
FC
ENDCHAR
STARTCHAR idieresis
ENCODING 239
SWIDTH 600 0
DWIDTH 7 0
BBX 6 9 1 0
BITMAP
58
78
00
F0
30
30
30
30
FC
ENDCHAR
STARTCHAR eth
ENCODING 240
SWIDTH 600 0
DWIDTH 7 0
BBX 5 9 1 0
BITMAP
F8
30
D8
68
98
88
88
88
70
ENDCHAR
STARTCHAR ntilde
ENCODING 241
SWIDTH 600 0
DWIDTH 7 0
BBX 5 9 1 0
BITMAP
70
B8
00
B0
C8
88
88
88
88
ENDCHAR
STARTCHAR ograve
ENCODING 242
SWIDTH 600 0
DWIDTH 7 0
BBX 5 10 1 0
BITMAP
40
60
20
00
70
88
88
88
88
70
ENDCHAR
STARTCHAR oacute
ENCODING 243
SWIDTH 600 0
DWIDTH 7 0
BBX 5 10 1 0
BITMAP
20
30
20
00
70
88
88
88
88
70
ENDCHAR
STARTCHAR ocircumflex
ENCODING 244
SWIDTH 600 0
DWIDTH 7 0
BBX 5 9 1 0
BITMAP
70
98
00
70
88
88
88
88
70
ENDCHAR
STARTCHAR otilde
ENCODING 245
SWIDTH 600 0
DWIDTH 7 0
BBX 5 9 1 0
BITMAP
70
B8
00
70
88
88
88
88
70
ENDCHAR
STARTCHAR odieresis
ENCODING 246
SWIDTH 600 0
DWIDTH 7 0
BBX 5 9 1 0
BITMAP
50
D8
00
70
88
88
88
88
70
ENDCHAR
STARTCHAR divide
ENCODING 247
SWIDTH 600 0
DWIDTH 7 0
BBX 5 7 1 0
BITMAP
20
20
00
F8
00
20
20
ENDCHAR
STARTCHAR oslash
ENCODING 248
SWIDTH 600 0
DWIDTH 7 0
BBX 7 6 0 0
BITMAP
3E
4C
54
54
64
F8
ENDCHAR
STARTCHAR ugrave
ENCODING 249
SWIDTH 600 0
DWIDTH 7 0
BBX 5 10 1 0
BITMAP
40
60
20
00
88
88
88
88
88
F8
ENDCHAR
STARTCHAR uacute
ENCODING 250
SWIDTH 600 0
DWIDTH 7 0
BBX 5 10 1 0
BITMAP
20
30
20
00
88
88
88
88
88
F8
ENDCHAR
STARTCHAR ucircumflex
ENCODING 251
SWIDTH 600 0
DWIDTH 7 0
BBX 5 9 1 0
BITMAP
70
98
00
88
88
88
88
88
F8
ENDCHAR
STARTCHAR udieresis
ENCODING 252
SWIDTH 600 0
DWIDTH 7 0
BBX 5 9 1 0
BITMAP
50
D8
00
88
88
88
88
88
F8
ENDCHAR
STARTCHAR yacute
ENCODING 253
SWIDTH 600 0
DWIDTH 7 0
BBX 7 12 0 -2
BITMAP
10
18
10
00
C6
44
6C
28
38
10
10
60
ENDCHAR
STARTCHAR thorn
ENCODING 254
SWIDTH 600 0
DWIDTH 7 0
BBX 6 11 1 -2
BITMAP
80
80
80
B8
C8
88
8C
88
F8
80
80
ENDCHAR
STARTCHAR ydieresis
ENCODING 255
SWIDTH 600 0
DWIDTH 7 0
BBX 7 11 0 -2
BITMAP
28
2C
00
C6
44
6C
28
38
10
10
60
ENDCHAR
STARTCHAR Amacron
ENCODING 256
SWIDTH 600 0
DWIDTH 7 0
BBX 7 10 0 0
BITMAP
38
00
38
28
28
28
6C
7C
44
C6
ENDCHAR
STARTCHAR amacron
ENCODING 257
SWIDTH 600 0
DWIDTH 7 0
BBX 6 8 1 0
BITMAP
70
00
F0
98
08
F8
88
FC
ENDCHAR
STARTCHAR Abreve
ENCODING 258
SWIDTH 600 0
DWIDTH 7 0
BBX 7 11 0 0
BITMAP
6C
38
00
38
28
28
28
6C
7C
44
C6
ENDCHAR
STARTCHAR abreve
ENCODING 259
SWIDTH 600 0
DWIDTH 7 0
BBX 6 9 1 0
BITMAP
D0
70
00
F0
98
08
F8
88
FC
ENDCHAR
STARTCHAR Aogonek
ENCODING 260
SWIDTH 600 0
DWIDTH 7 0
BBX 7 10 0 -2
BITMAP
38
28
28
2C
6C
7C
46
C6
04
06
ENDCHAR
STARTCHAR aogonek
ENCODING 261
SWIDTH 600 0
DWIDTH 7 0
BBX 6 8 1 -2
BITMAP
F0
98
08
F8
88
FC
10
1C
ENDCHAR
STARTCHAR Cacute
ENCODING 262
SWIDTH 600 0
DWIDTH 7 0
BBX 5 12 1 0
BITMAP
20
10
20
00
78
C8
80
80
80
80
C8
78
ENDCHAR
STARTCHAR cacute
ENCODING 263
SWIDTH 600 0
DWIDTH 7 0
BBX 5 10 1 0
BITMAP
20
10
20
00
70
88
80
80
88
70
ENDCHAR
STARTCHAR Ccircumflex
ENCODING 264
SWIDTH 600 0
DWIDTH 7 0
BBX 5 11 1 0
BITMAP
30
48
00
78
C8
80
80
80
80
C8
78
ENDCHAR
STARTCHAR ccircumflex
ENCODING 265
SWIDTH 600 0
DWIDTH 7 0
BBX 5 9 1 0
BITMAP
70
48
00
70
88
80
80
88
70
ENDCHAR
STARTCHAR Cdotaccent
ENCODING 266
SWIDTH 600 0
DWIDTH 7 0
BBX 5 11 1 0
BITMAP
30
30
00
78
C8
80
80
80
80
C8
78
ENDCHAR
STARTCHAR cdotaccent
ENCODING 267
SWIDTH 600 0
DWIDTH 7 0
BBX 5 9 1 0
BITMAP
20
30
00
70
88
80
80
88
70
ENDCHAR
STARTCHAR Ccaron
ENCODING 268
SWIDTH 600 0
DWIDTH 7 0
BBX 5 11 1 0
BITMAP
48
30
00
78
C8
80
80
80
80
C8
78
ENDCHAR
STARTCHAR ccaron
ENCODING 269
SWIDTH 600 0
DWIDTH 7 0
BBX 5 9 1 0
BITMAP
48
30
00
70
88
80
80
88
70
ENDCHAR
STARTCHAR Dcaron
ENCODING 270
SWIDTH 600 0
DWIDTH 7 0
BBX 6 11 1 0
BITMAP
90
60
00
F0
88
88
8C
8C
88
88
F0
ENDCHAR
STARTCHAR dcaron
ENCODING 271
SWIDTH 600 0
DWIDTH 7 0
BBX 8 9 0 0
BITMAP
0B
0A
08
78
48
C8
C8
48
78
ENDCHAR
STARTCHAR Dcroat
ENCODING 272
SWIDTH 600 0
DWIDTH 7 0
BBX 7 8 0 0
BITMAP
78
44
44
F6
46
44
44
78
ENDCHAR
STARTCHAR dcroat
ENCODING 273
SWIDTH 600 0
DWIDTH 7 0
BBX 7 9 0 0
BITMAP
04
1E
04
74
4C
44
C4
44
7C
ENDCHAR
STARTCHAR Emacron
ENCODING 274
SWIDTH 600 0
DWIDTH 7 0
BBX 5 10 1 0
BITMAP
70
00
F8
80
80
F8
80
80
80
F8
ENDCHAR
STARTCHAR emacron
ENCODING 275
SWIDTH 600 0
DWIDTH 7 0
BBX 5 8 1 0
BITMAP
70
00
70
88
F8
80
88
70
ENDCHAR
STARTCHAR Ebreve
ENCODING 276
SWIDTH 600 0
DWIDTH 7 0
BBX 5 11 1 0
BITMAP
D8
70
00
F8
80
80
F8
80
80
80
F8
ENDCHAR
STARTCHAR ebreve
ENCODING 277
SWIDTH 600 0
DWIDTH 7 0
BBX 5 9 1 0
BITMAP
D8
70
00
70
88
F8
80
88
70
ENDCHAR
STARTCHAR Edotaccent
ENCODING 278
SWIDTH 600 0
DWIDTH 7 0
BBX 5 11 1 0
BITMAP
20
20
00
F8
80
80
F8
80
80
80
F8
ENDCHAR
STARTCHAR edotaccent
ENCODING 279
SWIDTH 600 0
DWIDTH 7 0
BBX 5 9 1 0
BITMAP
20
20
00
70
88
F8
80
88
70
ENDCHAR
STARTCHAR Eogonek
ENCODING 280
SWIDTH 600 0
DWIDTH 7 0
BBX 5 10 1 -2
BITMAP
F8
80
80
F8
80
80
80
F8
10
18
ENDCHAR
STARTCHAR eogonek
ENCODING 281
SWIDTH 600 0
DWIDTH 7 0
BBX 5 8 1 -2
BITMAP
70
88
F8
80
88
70
20
38
ENDCHAR
STARTCHAR Ecaron
ENCODING 282
SWIDTH 600 0
DWIDTH 7 0
BBX 5 11 1 0
BITMAP
C8
70
00
F8
80
80
F8
80
80
80
F8
ENDCHAR
STARTCHAR ecaron
ENCODING 283
SWIDTH 600 0
DWIDTH 7 0
BBX 5 9 1 0
BITMAP
C8
50
20
70
88
F8
80
88
70
ENDCHAR
STARTCHAR Gcircumflex
ENCODING 284
SWIDTH 600 0
DWIDTH 7 0
BBX 6 11 0 0
BITMAP
38
64
00
38
44
40
C0
DC
44
44
3C
ENDCHAR
STARTCHAR gcircumflex
ENCODING 285
SWIDTH 600 0
DWIDTH 7 0
BBX 6 11 1 -2
BITMAP
70
98
00
7C
88
88
70
80
78
8C
F8
ENDCHAR
STARTCHAR Gbreve
ENCODING 286
SWIDTH 600 0
DWIDTH 7 0
BBX 6 11 0 0
BITMAP
6C
38
00
38
44
40
C0
DC
44
44
3C
ENDCHAR
STARTCHAR gbreve
ENCODING 287
SWIDTH 600 0
DWIDTH 7 0
BBX 6 11 1 -2
BITMAP
D8
70
00
7C
88
88
70
80
78
8C
F8
ENDCHAR
STARTCHAR Gdotaccent
ENCODING 288
SWIDTH 600 0
DWIDTH 7 0
BBX 6 11 0 0
BITMAP
10
10
00
38
44
40
C0
DC
44
44
3C
ENDCHAR
STARTCHAR gdotaccent
ENCODING 289
SWIDTH 600 0
DWIDTH 7 0
BBX 6 11 1 -2
BITMAP
20
20
0C
70
88
88
70
80
78
8C
F8
ENDCHAR
STARTCHAR Gcommaaccent
ENCODING 290
SWIDTH 600 0
DWIDTH 7 0
BBX 6 11 0 -3
BITMAP
38
44
40
C0
DC
44
44
3C
00
10
10
ENDCHAR
STARTCHAR gcommaaccent
ENCODING 291
SWIDTH 600 0
DWIDTH 7 0
BBX 6 11 1 -2
BITMAP
20
20
0C
70
88
88
70
80
78
8C
F8
ENDCHAR
STARTCHAR Hcircumflex
ENCODING 292
SWIDTH 600 0
DWIDTH 7 0
BBX 5 11 1 0
BITMAP
70
98
00
88
88
88
F8
88
88
88
88
ENDCHAR
STARTCHAR hcircumflex
ENCODING 293
SWIDTH 600 0
DWIDTH 7 0
BBX 7 11 -1 0
BITMAP
70
48
A0
20
20
2C
32
22
22
22
22
ENDCHAR
STARTCHAR Hbar
ENCODING 294
SWIDTH 600 0
DWIDTH 7 0
BBX 7 8 0 0
BITMAP
44
FE
44
7C
44
44
44
44
ENDCHAR
STARTCHAR hbar
ENCODING 295
SWIDTH 600 0
DWIDTH 7 0
BBX 6 9 0 0
BITMAP
40
F0
40
58
64
44
44
44
44
ENDCHAR
STARTCHAR Itilde
ENCODING 296
SWIDTH 600 0
DWIDTH 7 0
BBX 5 11 1 0
BITMAP
70
B8
00
F8
20
20
20
20
20
20
F8
ENDCHAR
STARTCHAR itilde
ENCODING 297
SWIDTH 600 0
DWIDTH 7 0
BBX 6 9 1 0
BITMAP
68
98
00
F0
30
30
30
30
FC
ENDCHAR
STARTCHAR Imacron
ENCODING 298
SWIDTH 600 0
DWIDTH 7 0
BBX 5 10 1 0
BITMAP
70
00
F8
20
20
20
20
20
20
F8
ENDCHAR
STARTCHAR imacron
ENCODING 299
SWIDTH 600 0
DWIDTH 7 0
BBX 6 8 1 0
BITMAP
78
00
F0
30
30
30
30
FC
ENDCHAR
STARTCHAR Ibreve
ENCODING 300
SWIDTH 600 0
DWIDTH 7 0
BBX 5 11 1 0
BITMAP
D8
70
00
F8
20
20
20
20
20
20
F8
ENDCHAR
STARTCHAR ibreve
ENCODING 301
SWIDTH 600 0
DWIDTH 7 0
BBX 6 9 1 0
BITMAP
48
30
00
F0
30
30
30
30
FC
ENDCHAR
STARTCHAR Iogonek
ENCODING 302
SWIDTH 600 0
DWIDTH 7 0
BBX 5 10 1 -2
BITMAP
F8
20
20
20
20
20
20
F8
10
18
ENDCHAR
STARTCHAR iogonek
ENCODING 303
SWIDTH 600 0
DWIDTH 7 0
BBX 6 11 1 -2
BITMAP
30
30
00
F0
30
30
30
30
FC
10
1C
ENDCHAR
STARTCHAR Idotaccent
ENCODING 304
SWIDTH 600 0
DWIDTH 7 0
BBX 5 11 1 0
BITMAP
20
20
00
F8
20
20
20
20
20
20
F8
ENDCHAR
STARTCHAR dotlessi
ENCODING 305
SWIDTH 600 0
DWIDTH 7 0
BBX 6 6 1 0
BITMAP
F0
30
30
30
30
FC
ENDCHAR
STARTCHAR IJ
ENCODING 306
SWIDTH 600 0
DWIDTH 7 0
BBX 5 8 1 0
BITMAP
88
88
88
88
88
08
88
70
ENDCHAR
STARTCHAR ij
ENCODING 307
SWIDTH 600 0
DWIDTH 7 0
BBX 5 11 1 -2
BITMAP
98
D8
00
88
88
88
88
88
88
08
78
ENDCHAR
STARTCHAR Jcircumflex
ENCODING 308
SWIDTH 600 0
DWIDTH 7 0
BBX 5 11 1 0
BITMAP
30
48
00
78
18
18
18
18
18
98
F0
ENDCHAR
STARTCHAR jcircumflex
ENCODING 309
SWIDTH 600 0
DWIDTH 7 0
BBX 6 11 1 -2
BITMAP
38
48
04
F0
10
10
10
10
10
10
F0
ENDCHAR
STARTCHAR Kcommaaccent
ENCODING 310
SWIDTH 600 0
DWIDTH 7 0
BBX 6 11 1 -3
BITMAP
8C
98
B0
A0
F0
90
98
8C
00
30
20
ENDCHAR
STARTCHAR kcommaaccent
ENCODING 311
SWIDTH 600 0
DWIDTH 7 0
BBX 6 12 1 -3
BITMAP
80
80
80
8C
B0
E0
F0
98
88
04
30
20
ENDCHAR
STARTCHAR kgreenlandic
ENCODING 312
SWIDTH 600 0
DWIDTH 7 0
BBX 6 6 1 0
BITMAP
8C
90
A0
F0
98
8C
ENDCHAR
STARTCHAR Lacute
ENCODING 313
SWIDTH 600 0
DWIDTH 7 0
BBX 5 12 1 0
BITMAP
80
40
80
00
C0
C0
C0
C0
C0
C0
C0
F8
ENDCHAR
STARTCHAR lacute
ENCODING 314
SWIDTH 600 0
DWIDTH 7 0
BBX 5 13 1 0
BITMAP
20
30
20
00
E0
20
20
20
20
20
20
20
F8
ENDCHAR
STARTCHAR Lcommaaccent
ENCODING 315
SWIDTH 600 0
DWIDTH 7 0
BBX 5 11 1 -3
BITMAP
C0
C0
C0
C0
C0
C0
C0
F8
00
30
20
ENDCHAR
STARTCHAR lcommaaccent
ENCODING 316
SWIDTH 600 0
DWIDTH 7 0
BBX 5 12 1 -3
BITMAP
E0
20
20
20
20
20
20
20
F8
00
20
20
ENDCHAR
STARTCHAR Lcaron
ENCODING 317
SWIDTH 600 0
DWIDTH 7 0
BBX 5 8 1 0
BITMAP
D0
D0
C0
C0
C0
C0
C0
F8
ENDCHAR
STARTCHAR lcaron
ENCODING 318
SWIDTH 600 0
DWIDTH 7 0
BBX 6 9 1 0
BITMAP
E0
2C
28
20
20
20
20
20
F8
ENDCHAR
STARTCHAR Ldot
ENCODING 319
SWIDTH 600 0
DWIDTH 7 0
BBX 5 8 1 0
BITMAP
C0
C0
C0
D8
D8
C0
C0
F8
ENDCHAR
STARTCHAR ldot
ENCODING 320
SWIDTH 600 0
DWIDTH 7 0
BBX 6 9 1 0
BITMAP
E0
20
20
20
2C
2C
20
20
F8
ENDCHAR
STARTCHAR Lslash
ENCODING 321
SWIDTH 600 0
DWIDTH 7 0
BBX 6 8 0 0
BITMAP
60
60
60
78
E0
60
60
7C
ENDCHAR
STARTCHAR lslash
ENCODING 322
SWIDTH 600 0
DWIDTH 7 0
BBX 5 9 1 0
BITMAP
E0
20
20
20
38
E0
20
20
F8
ENDCHAR
STARTCHAR Nacute
ENCODING 323
SWIDTH 600 0
DWIDTH 7 0
BBX 5 12 1 0
BITMAP
20
30
20
00
C8
C8
C8
A8
A8
B8
98
98
ENDCHAR
STARTCHAR nacute
ENCODING 324
SWIDTH 600 0
DWIDTH 7 0
BBX 5 10 1 0
BITMAP
20
30
20
00
B0
C8
88
88
88
88
ENDCHAR
STARTCHAR Ncommaaccent
ENCODING 325
SWIDTH 600 0
DWIDTH 7 0
BBX 5 11 1 -3
BITMAP
C8
C8
C8
A8
A8
B8
98
98
00
20
20
ENDCHAR
STARTCHAR ncommaaccent
ENCODING 326
SWIDTH 600 0
DWIDTH 7 0
BBX 5 9 1 -3
BITMAP
B0
C8
88
88
88
88
00
20
20
ENDCHAR
STARTCHAR Ncaron
ENCODING 327
SWIDTH 600 0
DWIDTH 7 0
BBX 5 11 1 0
BITMAP
D8
70
00
C8
C8
C8
A8
A8
B8
98
98
ENDCHAR
STARTCHAR ncaron
ENCODING 328
SWIDTH 600 0
DWIDTH 7 0
BBX 5 9 1 0
BITMAP
C8
50
20
B0
C8
88
88
88
88
ENDCHAR
STARTCHAR napostrophe
ENCODING 329
SWIDTH 600 0
DWIDTH 7 0
BBX 6 9 0 0
BITMAP
80
80
00
5C
64
44
44
44
44
ENDCHAR
STARTCHAR Eng
ENCODING 330
SWIDTH 600 0
DWIDTH 7 0
BBX 5 10 1 -2
BITMAP
C8
C8
C8
A8
A8
B8
98
98
08
78
ENDCHAR
STARTCHAR eng
ENCODING 331
SWIDTH 600 0
DWIDTH 7 0
BBX 5 8 1 -2
BITMAP
B8
C8
88
88
88
88
08
78
ENDCHAR
STARTCHAR Omacron
ENCODING 332
SWIDTH 600 0
DWIDTH 7 0
BBX 7 10 0 0
BITMAP
38
00
38
44
44
C6
C6
44
44
38
ENDCHAR
STARTCHAR omacron
ENCODING 333
SWIDTH 600 0
DWIDTH 7 0
BBX 5 8 1 0
BITMAP
70
00
70
88
88
88
88
70
ENDCHAR
STARTCHAR Obreve
ENCODING 334
SWIDTH 600 0
DWIDTH 7 0
BBX 7 11 0 0
BITMAP
6C
38
00
38
44
44
C6
C6
44
44
38
ENDCHAR
STARTCHAR obreve
ENCODING 335
SWIDTH 600 0
DWIDTH 7 0
BBX 5 9 1 0
BITMAP
D8
70
00
70
88
88
88
88
70
ENDCHAR
STARTCHAR Ohungarumlaut
ENCODING 336
SWIDTH 600 0
DWIDTH 7 0
BBX 7 12 0 0
BITMAP
28
34
28
00
38
44
44
C6
C6
44
44
38
ENDCHAR
STARTCHAR ohungarumlaut
ENCODING 337
SWIDTH 600 0
DWIDTH 7 0
BBX 5 10 1 0
BITMAP
50
68
50
00
70
88
88
88
88
70
ENDCHAR
STARTCHAR OE
ENCODING 338
SWIDTH 600 0
DWIDTH 7 0
BBX 7 8 0 0
BITMAP
3E
48
C8
CE
C8
C8
48
3E
ENDCHAR
STARTCHAR oe
ENCODING 339
SWIDTH 600 0
DWIDTH 7 0
BBX 7 6 0 0
BITMAP
6C
92
9E
90
92
6C
ENDCHAR
STARTCHAR Racute
ENCODING 340
SWIDTH 600 0
DWIDTH 7 0
BBX 6 12 1 0
BITMAP
20
30
20
00
F8
88
88
8C
F8
90
98
8C
ENDCHAR
STARTCHAR racute
ENCODING 341
SWIDTH 600 0
DWIDTH 7 0
BBX 6 10 1 0
BITMAP
20
18
20
00
EC
70
60
60
60
F8
ENDCHAR
STARTCHAR Rcommaaccent
ENCODING 342
SWIDTH 600 0
DWIDTH 7 0
BBX 6 11 1 -3
BITMAP
F8
88
88
8C
F8
90
98
88
04
30
20
ENDCHAR
STARTCHAR rcommaaccent
ENCODING 343
SWIDTH 600 0
DWIDTH 7 0
BBX 6 9 1 -3
BITMAP
EC
70
60
60
60
F8
00
60
40
ENDCHAR
STARTCHAR Rcaron
ENCODING 344
SWIDTH 600 0
DWIDTH 7 0
BBX 6 11 1 0
BITMAP
C8
70
00
F8
88
88
8C
F8
90
98
8C
ENDCHAR
STARTCHAR rcaron
ENCODING 345
SWIDTH 600 0
DWIDTH 7 0
BBX 6 9 1 0
BITMAP
48
30
00
EC
70
60
60
60
F8
ENDCHAR
STARTCHAR Sacute
ENCODING 346
SWIDTH 600 0
DWIDTH 7 0
BBX 6 12 0 0
BITMAP
10
18
10
00
3C
44
40
70
0C
04
44
F8
ENDCHAR
STARTCHAR sacute
ENCODING 347
SWIDTH 600 0
DWIDTH 7 0
BBX 5 10 1 0
BITMAP
20
30
20
00
78
88
E0
38
88
F8
ENDCHAR
STARTCHAR Scircumflex
ENCODING 348
SWIDTH 600 0
DWIDTH 7 0
BBX 6 11 0 0
BITMAP
38
4C
00
3C
44
40
70
0C
04
44
F8
ENDCHAR
STARTCHAR scircumflex
ENCODING 349
SWIDTH 600 0
DWIDTH 7 0
BBX 5 9 1 0
BITMAP
70
98
00
78
88
E0
38
88
F8
ENDCHAR
STARTCHAR Scedilla
ENCODING 350
SWIDTH 600 0
DWIDTH 7 0
BBX 6 12 0 -4
BITMAP
3C
44
40
70
0C
04
44
FC
10
18
08
38
ENDCHAR
STARTCHAR scedilla
ENCODING 351
SWIDTH 600 0
DWIDTH 7 0
BBX 5 10 1 -4
BITMAP
78
88
E0
38
88
F8
20
30
10
70
ENDCHAR
STARTCHAR Scaron
ENCODING 352
SWIDTH 600 0
DWIDTH 7 0
BBX 6 11 0 0
BITMAP
6C
38
00
3C
44
40
70
0C
04
44
F8
ENDCHAR
STARTCHAR scaron
ENCODING 353
SWIDTH 600 0
DWIDTH 7 0
BBX 5 9 1 0
BITMAP
C8
50
20
78
88
E0
38
88
F8
ENDCHAR
STARTCHAR Tcommaaccent
ENCODING 354
SWIDTH 600 0
DWIDTH 7 0
BBX 7 11 0 -3
BITMAP
FE
10
10
10
10
10
10
10
00
10
10
ENDCHAR
STARTCHAR tcommaaccent
ENCODING 355
SWIDTH 600 0
DWIDTH 7 0
BBX 6 11 0 -3
BITMAP
30
30
FC
30
30
30
30
1C
00
08
18
ENDCHAR
STARTCHAR Tcaron
ENCODING 356
SWIDTH 600 0
DWIDTH 7 0
BBX 7 11 0 0
BITMAP
6C
38
00
FE
10
10
10
10
10
10
10
ENDCHAR
STARTCHAR tcaron
ENCODING 357
SWIDTH 600 0
DWIDTH 7 0
BBX 6 8 0 0
BITMAP
34
34
FC
30
30
30
30
1C
ENDCHAR
STARTCHAR Tbar
ENCODING 358
SWIDTH 600 0
DWIDTH 7 0
BBX 7 8 0 0
BITMAP
FE
10
10
7C
10
10
10
10
ENDCHAR
STARTCHAR tbar
ENCODING 359
SWIDTH 600 0
DWIDTH 7 0
BBX 6 8 0 0
BITMAP
30
30
FC
30
7C
30
30
1C
ENDCHAR
STARTCHAR Utilde
ENCODING 360
SWIDTH 600 0
DWIDTH 7 0
BBX 5 11 1 0
BITMAP
70
B8
00
88
88
88
88
88
88
88
70
ENDCHAR
STARTCHAR utilde
ENCODING 361
SWIDTH 600 0
DWIDTH 7 0
BBX 5 9 1 0
BITMAP
70
B8
00
88
88
88
88
88
F8
ENDCHAR
STARTCHAR Umacron
ENCODING 362
SWIDTH 600 0
DWIDTH 7 0
BBX 5 10 1 0
BITMAP
70
00
88
88
88
88
88
88
88
70
ENDCHAR
STARTCHAR umacron
ENCODING 363
SWIDTH 600 0
DWIDTH 7 0
BBX 5 8 1 0
BITMAP
70
00
88
88
88
88
88
F8
ENDCHAR
STARTCHAR Ubreve
ENCODING 364
SWIDTH 600 0
DWIDTH 7 0
BBX 5 11 1 0
BITMAP
D8
70
00
88
88
88
88
88
88
88
70
ENDCHAR
STARTCHAR ubreve
ENCODING 365
SWIDTH 600 0
DWIDTH 7 0
BBX 5 9 1 0
BITMAP
D8
70
00
88
88
88
88
88
F8
ENDCHAR
STARTCHAR Uring
ENCODING 366
SWIDTH 600 0
DWIDTH 7 0
BBX 5 12 1 0
BITMAP
70
50
70
00
88
88
88
88
88
88
88
70
ENDCHAR
STARTCHAR uring
ENCODING 367
SWIDTH 600 0
DWIDTH 7 0
BBX 5 10 1 0
BITMAP
70
50
70
00
88
88
88
88
88
F8
ENDCHAR
STARTCHAR Uhungarumlaut
ENCODING 368
SWIDTH 600 0
DWIDTH 7 0
BBX 5 12 1 0
BITMAP
50
68
50
00
88
88
88
88
88
88
88
70
ENDCHAR
STARTCHAR uhungarumlaut
ENCODING 369
SWIDTH 600 0
DWIDTH 7 0
BBX 5 10 1 0
BITMAP
50
68
50
00
88
88
88
88
88
F8
ENDCHAR
STARTCHAR Uogonek
ENCODING 370
SWIDTH 600 0
DWIDTH 7 0
BBX 5 10 1 -2
BITMAP
88
88
88
88
88
88
88
70
20
30
ENDCHAR
STARTCHAR uogonek
ENCODING 371
SWIDTH 600 0
DWIDTH 7 0
BBX 5 8 1 -2
BITMAP
88
88
88
88
88
F8
10
18
ENDCHAR
STARTCHAR Wcircumflex
ENCODING 372
SWIDTH 600 0
DWIDTH 7 0
BBX 7 11 0 0
BITMAP
38
4C
00
82
82
D2
F6
6C
6C
6C
6C
ENDCHAR
STARTCHAR wcircumflex
ENCODING 373
SWIDTH 600 0
DWIDTH 7 0
BBX 7 9 0 0
BITMAP
38
4C
00
92
B2
6E
6C
6C
6C
ENDCHAR
STARTCHAR Ycircumflex
ENCODING 374
SWIDTH 600 0
DWIDTH 7 0
BBX 7 11 0 0
BITMAP
38
4C
00
C6
44
6C
28
38
10
10
10
ENDCHAR
STARTCHAR ycircumflex
ENCODING 375
SWIDTH 600 0
DWIDTH 7 0
BBX 7 11 0 -2
BITMAP
38
4C
00
C6
44
6C
28
38
10
10
60
ENDCHAR
STARTCHAR Ydieresis
ENCODING 376
SWIDTH 600 0
DWIDTH 7 0
BBX 7 11 0 0
BITMAP
28
6C
00
C6
44
6C
28
38
10
10
10
ENDCHAR
STARTCHAR Zacute
ENCODING 377
SWIDTH 600 0
DWIDTH 7 0
BBX 6 12 0 0
BITMAP
10
18
10
00
7C
0C
08
18
30
20
40
FC
ENDCHAR
STARTCHAR zacute
ENCODING 378
SWIDTH 600 0
DWIDTH 7 0
BBX 5 10 1 0
BITMAP
20
30
20
00
F8
18
30
60
C0
F8
ENDCHAR
STARTCHAR Zdotaccent
ENCODING 379
SWIDTH 600 0
DWIDTH 7 0
BBX 6 11 0 0
BITMAP
10
10
00
7C
0C
08
18
30
20
40
FC
ENDCHAR
STARTCHAR zdotaccent
ENCODING 380
SWIDTH 600 0
DWIDTH 7 0
BBX 5 9 1 0
BITMAP
20
20
00
F8
18
30
60
C0
F8
ENDCHAR
STARTCHAR Zcaron
ENCODING 381
SWIDTH 600 0
DWIDTH 7 0
BBX 6 11 0 0
BITMAP
6C
38
00
7C
0C
08
18
30
20
40
FC
ENDCHAR
STARTCHAR zcaron
ENCODING 382
SWIDTH 600 0
DWIDTH 7 0
BBX 5 9 1 0
BITMAP
C8
50
20
F8
18
30
60
C0
F8
ENDCHAR
STARTCHAR uni018F
ENCODING 399
SWIDTH 600 0
DWIDTH 7 0
BBX 7 8 0 0
BITMAP
38
44
44
06
FE
44
44
38
ENDCHAR
STARTCHAR florin
ENCODING 402
SWIDTH 600 0
DWIDTH 7 0
BBX 8 10 -1 -2
BITMAP
07
0C
08
3E
08
08
18
18
10
F0
ENDCHAR
STARTCHAR Ohorn
ENCODING 416
SWIDTH 600 0
DWIDTH 7 0
BBX 7 9 0 0
BITMAP
02
3E
44
44
C6
C6
44
44
38
ENDCHAR
STARTCHAR ohorn
ENCODING 417
SWIDTH 600 0
DWIDTH 7 0
BBX 6 7 1 0
BITMAP
0C
7C
88
88
88
88
70
ENDCHAR
STARTCHAR Uhorn
ENCODING 431
SWIDTH 600 0
DWIDTH 7 0
BBX 6 9 1 0
BITMAP
04
8C
88
88
88
88
88
88
70
ENDCHAR
STARTCHAR uhorn
ENCODING 432
SWIDTH 600 0
DWIDTH 7 0
BBX 6 7 1 0
BITMAP
04
8C
88
88
88
88
F8
ENDCHAR
STARTCHAR Aringacute
ENCODING 506
SWIDTH 600 0
DWIDTH 7 0
BBX 7 15 0 0
BITMAP
08
10
00
38
28
38
00
38
28
28
28
6C
7C
44
C6
ENDCHAR
STARTCHAR aringacute
ENCODING 507
SWIDTH 600 0
DWIDTH 7 0
BBX 6 13 1 0
BITMAP
20
30
00
70
50
70
00
F0
98
08
F8
88
FC
ENDCHAR
STARTCHAR AEacute
ENCODING 508
SWIDTH 600 0
DWIDTH 7 0
BBX 7 12 0 0
BITMAP
08
0C
08
00
3E
38
38
7E
58
78
D8
9E
ENDCHAR
STARTCHAR aeacute
ENCODING 509
SWIDTH 600 0
DWIDTH 7 0
BBX 7 10 0 0
BITMAP
10
18
10
00
6C
92
1E
F0
92
EC
ENDCHAR
STARTCHAR Oslashacute
ENCODING 510
SWIDTH 600 0
DWIDTH 7 0
BBX 7 13 0 -1
BITMAP
10
18
10
04
3E
44
4C
D6
D6
64
44
78
80
ENDCHAR
STARTCHAR oslashacute
ENCODING 511
SWIDTH 600 0
DWIDTH 7 0
BBX 7 10 0 0
BITMAP
10
18
10
00
3E
4C
54
54
64
F8
ENDCHAR
STARTCHAR Scommaaccent
ENCODING 536
SWIDTH 600 0
DWIDTH 7 0
BBX 6 11 0 -3
BITMAP
3C
44
40
70
0C
04
44
F8
00
10
30
ENDCHAR
STARTCHAR scommaaccent
ENCODING 537
SWIDTH 600 0
DWIDTH 7 0
BBX 5 9 1 -3
BITMAP
78
88
E0
38
88
F8
00
20
20
ENDCHAR
STARTCHAR uni021A
ENCODING 538
SWIDTH 600 0
DWIDTH 7 0
BBX 7 11 0 -3
BITMAP
FE
10
10
10
10
10
10
10
00
10
10
ENDCHAR
STARTCHAR uni021B
ENCODING 539
SWIDTH 600 0
DWIDTH 7 0
BBX 6 11 0 -3
BITMAP
30
30
FC
30
30
30
30
1C
00
08
18
ENDCHAR
STARTCHAR uni0237
ENCODING 567
SWIDTH 600 0
DWIDTH 7 0
BBX 4 8 1 -2
BITMAP
F0
10
10
10
10
10
10
F0
ENDCHAR
STARTCHAR uni0259
ENCODING 601
SWIDTH 600 0
DWIDTH 7 0
BBX 5 6 1 0
BITMAP
70
88
08
F8
88
70
ENDCHAR
STARTCHAR uni02BB
ENCODING 699
SWIDTH 600 0
DWIDTH 7 0
BBX 2 2 3 7
BITMAP
C0
80
ENDCHAR
STARTCHAR uni02BC
ENCODING 700
SWIDTH 600 0
DWIDTH 7 0
BBX 2 2 2 6
BITMAP
C0
80
ENDCHAR
STARTCHAR circumflex
ENCODING 710
SWIDTH 600 0
DWIDTH 7 0
BBX 5 2 1 7
BITMAP
70
98
ENDCHAR
STARTCHAR caron
ENCODING 711
SWIDTH 600 0
DWIDTH 7 0
BBX 5 2 1 7
BITMAP
C8
70
ENDCHAR
STARTCHAR breve
ENCODING 728
SWIDTH 600 0
DWIDTH 7 0
BBX 5 2 1 7
BITMAP
D8
70
ENDCHAR
STARTCHAR dotaccent
ENCODING 729
SWIDTH 600 0
DWIDTH 7 0
BBX 1 2 3 7
BITMAP
80
80
ENDCHAR
STARTCHAR ring
ENCODING 730
SWIDTH 600 0
DWIDTH 7 0
BBX 3 3 2 7
BITMAP
E0
A0
E0
ENDCHAR
STARTCHAR ogonek
ENCODING 731
SWIDTH 600 0
DWIDTH 7 0
BBX 3 3 1 -2
BITMAP
60
80
E0
ENDCHAR
STARTCHAR tilde
ENCODING 732
SWIDTH 600 0
DWIDTH 7 0
BBX 5 2 1 7
BITMAP
70
B8
ENDCHAR
STARTCHAR hungarumlaut
ENCODING 733
SWIDTH 600 0
DWIDTH 7 0
BBX 4 3 2 7
BITMAP
A0
D0
A0
ENDCHAR
STARTCHAR uni0300
ENCODING 768
SWIDTH 0 0
DWIDTH 0 0
BBX 3 3 -2 7
BITMAP
40
C0
60
ENDCHAR
STARTCHAR uni0301
ENCODING 769
SWIDTH 0 0
DWIDTH 0 0
BBX 2 3 -1 7
BITMAP
80
40
80
ENDCHAR
STARTCHAR uni0302
ENCODING 770
SWIDTH 0 0
DWIDTH 0 0
BBX 4 2 -2 7
BITMAP
60
90
ENDCHAR
STARTCHAR uni0303
ENCODING 771
SWIDTH 0 0
DWIDTH 0 0
BBX 4 2 -2 7
BITMAP
D0
B0
ENDCHAR
STARTCHAR uni0304
ENCODING 772
SWIDTH 0 0
DWIDTH 0 0
BBX 4 1 -2 7
BITMAP
F0
ENDCHAR
STARTCHAR uni0306
ENCODING 774
SWIDTH 0 0
DWIDTH 0 0
BBX 4 2 -2 7
BITMAP
90
60
ENDCHAR
STARTCHAR uni0307
ENCODING 775
SWIDTH 0 0
DWIDTH 0 0
BBX 2 2 -1 7
BITMAP
C0
C0
ENDCHAR
STARTCHAR uni0308
ENCODING 776
SWIDTH 0 0
DWIDTH 0 0
BBX 4 2 -2 7
BITMAP
B0
F0
ENDCHAR
STARTCHAR uni0309
ENCODING 777
SWIDTH 0 0
DWIDTH 0 0
BBX 2 3 -1 7
BITMAP
C0
40
40
ENDCHAR
STARTCHAR uni030A
ENCODING 778
SWIDTH 0 0
DWIDTH 0 0
BBX 3 3 -2 7
BITMAP
60
A0
60
ENDCHAR
STARTCHAR uni030B
ENCODING 779
SWIDTH 0 0
DWIDTH 0 0
BBX 5 3 -2 7
BITMAP
A0
58
A0
ENDCHAR
STARTCHAR uni030C
ENCODING 780
SWIDTH 0 0
DWIDTH 0 0
BBX 4 2 -2 7
BITMAP
90
60
ENDCHAR
STARTCHAR uni0312
ENCODING 786
SWIDTH 0 0
DWIDTH 0 0
BBX 2 2 -1 7
BITMAP
40
C0
ENDCHAR
STARTCHAR uni0315
ENCODING 789
SWIDTH 0 0
DWIDTH 0 0
BBX 2 2 0 6
BITMAP
C0
80
ENDCHAR
STARTCHAR uni031B
ENCODING 795
SWIDTH 0 0
DWIDTH 0 0
BBX 2 2 -1 5
BITMAP
40
C0
ENDCHAR
STARTCHAR uni0323
ENCODING 803
SWIDTH 0 0
DWIDTH 0 0
BBX 2 2 -1 -3
BITMAP
C0
C0
ENDCHAR
STARTCHAR uni0326
ENCODING 806
SWIDTH 0 0
DWIDTH 0 0
BBX 2 2 -1 -3
BITMAP
C0
80
ENDCHAR
STARTCHAR uni0327
ENCODING 807
SWIDTH 0 0
DWIDTH 0 0
BBX 3 3 -1 -3
BITMAP
80
40
E0
ENDCHAR
STARTCHAR uni0328
ENCODING 808
SWIDTH 0 0
DWIDTH 0 0
BBX 2 3 -2 -2
BITMAP
40
80
C0
ENDCHAR
STARTCHAR pi
ENCODING 960
SWIDTH 600 0
DWIDTH 7 0
BBX 7 6 0 0
BITMAP
FE
4C
4C
4C
4C
46
ENDCHAR
STARTCHAR uni0400
ENCODING 1024
SWIDTH 600 0
DWIDTH 7 0
BBX 5 12 1 0
BITMAP
40
60
20
00
F8
80
80
F8
80
80
80
F8
ENDCHAR
STARTCHAR uni0401
ENCODING 1025
SWIDTH 600 0
DWIDTH 7 0
BBX 5 11 1 0
BITMAP
58
58
00
F8
80
80
F8
80
80
80
F8
ENDCHAR
STARTCHAR uni0402
ENCODING 1026
SWIDTH 600 0
DWIDTH 7 0
BBX 7 10 0 -2
BITMAP
F8
20
20
3C
26
26
26
26
06
1C
ENDCHAR
STARTCHAR uni0403
ENCODING 1027
SWIDTH 600 0
DWIDTH 7 0
BBX 5 12 1 0
BITMAP
20
10
20
00
F8
C0
C0
C0
C0
C0
C0
C0
ENDCHAR
STARTCHAR uni0404
ENCODING 1028
SWIDTH 600 0
DWIDTH 7 0
BBX 5 8 1 0
BITMAP
78
88
80
F0
80
80
C8
78
ENDCHAR
STARTCHAR uni0405
ENCODING 1029
SWIDTH 600 0
DWIDTH 7 0
BBX 6 8 0 0
BITMAP
3C
44
40
70
0C
04
44
F8
ENDCHAR
STARTCHAR uni0406
ENCODING 1030
SWIDTH 600 0
DWIDTH 7 0
BBX 5 8 1 0
BITMAP
F8
20
20
20
20
20
20
F8
ENDCHAR
STARTCHAR uni0407
ENCODING 1031
SWIDTH 600 0
DWIDTH 7 0
BBX 5 11 1 0
BITMAP
50
D8
00
F8
20
20
20
20
20
20
F8
ENDCHAR
STARTCHAR uni0408
ENCODING 1032
SWIDTH 600 0
DWIDTH 7 0
BBX 5 8 1 0
BITMAP
78
18
18
18
18
18
98
F0
ENDCHAR
STARTCHAR uni0409
ENCODING 1033
SWIDTH 600 0
DWIDTH 7 0
BBX 7 8 0 0
BITMAP
78
58
58
5C
5A
5A
5A
9C
ENDCHAR
STARTCHAR uni040A
ENCODING 1034
SWIDTH 600 0
DWIDTH 7 0
BBX 7 8 0 0
BITMAP
D0
D0
D0
FC
D2
D2
D2
DC
ENDCHAR
STARTCHAR uni040B
ENCODING 1035
SWIDTH 600 0
DWIDTH 7 0
BBX 7 8 0 0
BITMAP
F8
20
20
3C
26
26
26
26
ENDCHAR
STARTCHAR uni040C
ENCODING 1036
SWIDTH 600 0
DWIDTH 7 0
BBX 6 12 1 0
BITMAP
20
30
20
00
88
98
90
E0
90
90
98
8C
ENDCHAR
STARTCHAR uni040D
ENCODING 1037
SWIDTH 600 0
DWIDTH 7 0
BBX 5 12 1 0
BITMAP
40
60
20
00
88
98
98
A8
A8
C8
C8
88
ENDCHAR
STARTCHAR uni040E
ENCODING 1038
SWIDTH 600 0
DWIDTH 7 0
BBX 7 11 0 0
BITMAP
6C
38
00
C6
44
6C
28
38
18
10
70
ENDCHAR
STARTCHAR uni040F
ENCODING 1039
SWIDTH 600 0
DWIDTH 7 0
BBX 5 10 1 -2
BITMAP
88
88
88
88
88
88
88
F8
20
20
ENDCHAR
STARTCHAR uni0410
ENCODING 1040
SWIDTH 600 0
DWIDTH 7 0
BBX 7 8 0 0
BITMAP
38
28
28
28
6C
7C
44
C6
ENDCHAR
STARTCHAR uni0411
ENCODING 1041
SWIDTH 600 0
DWIDTH 7 0
BBX 5 8 1 0
BITMAP
F8
80
80
F8
88
88
88
F8
ENDCHAR
STARTCHAR uni0412
ENCODING 1042
SWIDTH 600 0
DWIDTH 7 0
BBX 5 8 1 0
BITMAP
F8
88
88
F0
88
88
88
F8
ENDCHAR
STARTCHAR uni0413
ENCODING 1043
SWIDTH 600 0
DWIDTH 7 0
BBX 5 8 1 0
BITMAP
F8
C0
C0
C0
C0
C0
C0
C0
ENDCHAR
STARTCHAR uni0414
ENCODING 1044
SWIDTH 600 0
DWIDTH 7 0
BBX 7 10 0 -2
BITMAP
3C
24
24
24
24
64
44
FE
82
82
ENDCHAR
STARTCHAR uni0415
ENCODING 1045
SWIDTH 600 0
DWIDTH 7 0
BBX 5 8 1 0
BITMAP
F8
80
80
F8
80
80
80
F8
ENDCHAR
STARTCHAR uni0416
ENCODING 1046
SWIDTH 600 0
DWIDTH 7 0
BBX 7 8 0 0
BITMAP
92
56
54
38
54
54
D6
92
ENDCHAR
STARTCHAR uni0417
ENCODING 1047
SWIDTH 600 0
DWIDTH 7 0
BBX 6 8 0 0
BITMAP
78
44
04
38
04
04
44
F8
ENDCHAR
STARTCHAR uni0418
ENCODING 1048
SWIDTH 600 0
DWIDTH 7 0
BBX 5 8 1 0
BITMAP
88
98
98
A8
A8
C8
C8
88
ENDCHAR
STARTCHAR uni0419
ENCODING 1049
SWIDTH 600 0
DWIDTH 7 0
BBX 5 11 1 0
BITMAP
D8
70
00
88
98
98
A8
A8
C8
C8
88
ENDCHAR
STARTCHAR uni041A
ENCODING 1050
SWIDTH 600 0
DWIDTH 7 0
BBX 6 8 1 0
BITMAP
88
98
90
E0
90
90
98
8C
ENDCHAR
STARTCHAR uni041B
ENCODING 1051
SWIDTH 600 0
DWIDTH 7 0
BBX 6 8 0 0
BITMAP
3C
24
24
24
24
24
64
C4
ENDCHAR
STARTCHAR uni041C
ENCODING 1052
SWIDTH 600 0
DWIDTH 7 0
BBX 5 8 1 0
BITMAP
88
D8
D8
F8
A8
A8
88
88
ENDCHAR
STARTCHAR uni041D
ENCODING 1053
SWIDTH 600 0
DWIDTH 7 0
BBX 5 8 1 0
BITMAP
88
88
88
F8
88
88
88
88
ENDCHAR
STARTCHAR uni041E
ENCODING 1054
SWIDTH 600 0
DWIDTH 7 0
BBX 7 8 0 0
BITMAP
38
44
44
C6
C6
44
44
38
ENDCHAR
STARTCHAR uni041F
ENCODING 1055
SWIDTH 600 0
DWIDTH 7 0
BBX 5 8 1 0
BITMAP
F8
88
88
88
88
88
88
88
ENDCHAR
STARTCHAR uni0420
ENCODING 1056
SWIDTH 600 0
DWIDTH 7 0
BBX 5 8 1 0
BITMAP
F8
88
88
88
F8
80
80
80
ENDCHAR
STARTCHAR uni0421
ENCODING 1057
SWIDTH 600 0
DWIDTH 7 0
BBX 5 8 1 0
BITMAP
78
C8
80
80
80
80
C8
78
ENDCHAR
STARTCHAR uni0422
ENCODING 1058
SWIDTH 600 0
DWIDTH 7 0
BBX 7 8 0 0
BITMAP
FE
10
10
10
10
10
10
10
ENDCHAR
STARTCHAR uni0423
ENCODING 1059
SWIDTH 600 0
DWIDTH 7 0
BBX 7 8 0 0
BITMAP
C6
44
6C
28
38
18
10
70
ENDCHAR
STARTCHAR uni0424
ENCODING 1060
SWIDTH 600 0
DWIDTH 7 0
BBX 7 8 0 0
BITMAP
10
7C
56
D2
D2
56
7C
10
ENDCHAR
STARTCHAR uni0425
ENCODING 1061
SWIDTH 600 0
DWIDTH 7 0
BBX 7 8 0 0
BITMAP
C6
6C
28
38
38
28
4C
C6
ENDCHAR
STARTCHAR uni0426
ENCODING 1062
SWIDTH 600 0
DWIDTH 7 0
BBX 6 10 1 -2
BITMAP
88
88
88
88
88
88
88
FC
04
04
ENDCHAR
STARTCHAR uni0427
ENCODING 1063
SWIDTH 600 0
DWIDTH 7 0
BBX 6 8 0 0
BITMAP
C4
C4
44
44
7C
04
04
04
ENDCHAR
STARTCHAR uni0428
ENCODING 1064
SWIDTH 600 0
DWIDTH 7 0
BBX 7 8 0 0
BITMAP
D6
D6
D6
D6
D6
D6
D6
FE
ENDCHAR
STARTCHAR uni0429
ENCODING 1065
SWIDTH 600 0
DWIDTH 7 0
BBX 7 10 0 -2
BITMAP
D4
D4
D4
D4
D4
D4
D4
FE
02
02
ENDCHAR
STARTCHAR uni042A
ENCODING 1066
SWIDTH 600 0
DWIDTH 7 0
BBX 7 8 0 0
BITMAP
E0
20
20
3C
26
22
26
3C
ENDCHAR
STARTCHAR uni042B
ENCODING 1067
SWIDTH 600 0
DWIDTH 7 0
BBX 7 8 0 0
BITMAP
C6
C6
C6
F6
DE
DE
DE
F6
ENDCHAR
STARTCHAR uni042C
ENCODING 1068
SWIDTH 600 0
DWIDTH 7 0
BBX 6 8 1 0
BITMAP
80
80
80
F8
88
8C
88
F8
ENDCHAR
STARTCHAR uni042D
ENCODING 1069
SWIDTH 600 0
DWIDTH 7 0
BBX 5 8 1 0
BITMAP
F0
88
08
78
08
08
98
F0
ENDCHAR
STARTCHAR uni042E
ENCODING 1070
SWIDTH 600 0
DWIDTH 7 0
BBX 7 8 0 0
BITMAP
DC
D4
F6
F6
F6
F6
D4
DC
ENDCHAR
STARTCHAR uni042F
ENCODING 1071
SWIDTH 600 0
DWIDTH 7 0
BBX 6 8 0 0
BITMAP
7C
44
44
44
3C
24
64
C4
ENDCHAR
STARTCHAR uni0430
ENCODING 1072
SWIDTH 600 0
DWIDTH 7 0
BBX 6 6 1 0
BITMAP
F0
98
08
F8
88
FC
ENDCHAR
STARTCHAR uni0431
ENCODING 1073
SWIDTH 600 0
DWIDTH 7 0
BBX 5 9 1 0
BITMAP
78
C0
80
B0
C8
88
88
88
70
ENDCHAR
STARTCHAR uni0432
ENCODING 1074
SWIDTH 600 0
DWIDTH 7 0
BBX 5 6 1 0
BITMAP
F8
88
F0
88
88
F8
ENDCHAR
STARTCHAR uni0433
ENCODING 1075
SWIDTH 600 0
DWIDTH 7 0
BBX 5 6 1 0
BITMAP
F8
C0
C0
C0
C0
C0
ENDCHAR
STARTCHAR uni0434
ENCODING 1076
SWIDTH 600 0
DWIDTH 7 0
BBX 7 8 0 -2
BITMAP
3C
24
24
64
44
FE
82
82
ENDCHAR
STARTCHAR uni0435
ENCODING 1077
SWIDTH 600 0
DWIDTH 7 0
BBX 5 6 1 0
BITMAP
70
88
F8
80
88
70
ENDCHAR
STARTCHAR uni0436
ENCODING 1078
SWIDTH 600 0
DWIDTH 7 0
BBX 7 6 0 0
BITMAP
D6
54
3C
54
54
92
ENDCHAR
STARTCHAR uni0437
ENCODING 1079
SWIDTH 600 0
DWIDTH 7 0
BBX 5 6 1 0
BITMAP
F8
88
70
08
88
F0
ENDCHAR
STARTCHAR uni0438
ENCODING 1080
SWIDTH 600 0
DWIDTH 7 0
BBX 5 6 1 0
BITMAP
98
98
A8
A8
C8
88
ENDCHAR
STARTCHAR uni0439
ENCODING 1081
SWIDTH 600 0
DWIDTH 7 0
BBX 5 9 1 0
BITMAP
D8
70
00
98
98
A8
A8
C8
88
ENDCHAR
STARTCHAR uni043A
ENCODING 1082
SWIDTH 600 0
DWIDTH 7 0
BBX 5 6 1 0
BITMAP
88
90
E0
90
98
88
ENDCHAR
STARTCHAR uni043B
ENCODING 1083
SWIDTH 600 0
DWIDTH 7 0
BBX 6 6 0 0
BITMAP
3C
24
24
24
64
C4
ENDCHAR
STARTCHAR uni043C
ENCODING 1084
SWIDTH 600 0
DWIDTH 7 0
BBX 5 6 1 0
BITMAP
88
D8
D8
A8
A8
88
ENDCHAR
STARTCHAR uni043D
ENCODING 1085
SWIDTH 600 0
DWIDTH 7 0
BBX 5 6 1 0
BITMAP
88
88
F8
88
88
88
ENDCHAR
STARTCHAR uni043E
ENCODING 1086
SWIDTH 600 0
DWIDTH 7 0
BBX 5 6 1 0
BITMAP
70
88
88
88
88
70
ENDCHAR
STARTCHAR uni043F
ENCODING 1087
SWIDTH 600 0
DWIDTH 7 0
BBX 5 6 1 0
BITMAP
F8
88
88
88
88
88
ENDCHAR
STARTCHAR uni0440
ENCODING 1088
SWIDTH 600 0
DWIDTH 7 0
BBX 6 8 1 -2
BITMAP
B8
C8
88
8C
88
F8
80
80
ENDCHAR
STARTCHAR uni0441
ENCODING 1089
SWIDTH 600 0
DWIDTH 7 0
BBX 5 6 1 0
BITMAP
70
88
80
80
88
70
ENDCHAR
STARTCHAR uni0442
ENCODING 1090
SWIDTH 600 0
DWIDTH 7 0
BBX 5 6 1 0
BITMAP
F8
20
20
20
20
20
ENDCHAR
STARTCHAR uni0443
ENCODING 1091
SWIDTH 600 0
DWIDTH 7 0
BBX 7 8 0 -2
BITMAP
C6
44
6C
28
38
10
10
60
ENDCHAR
STARTCHAR uni0444
ENCODING 1092
SWIDTH 600 0
DWIDTH 7 0
BBX 7 10 0 -2
BITMAP
10
10
7C
D6
D2
D2
D6
7C
10
10
ENDCHAR
STARTCHAR uni0445
ENCODING 1093
SWIDTH 600 0
DWIDTH 7 0
BBX 7 6 0 0
BITMAP
44
28
38
38
28
C6
ENDCHAR
STARTCHAR uni0446
ENCODING 1094
SWIDTH 600 0
DWIDTH 7 0
BBX 6 8 1 -2
BITMAP
98
98
98
98
98
FC
04
04
ENDCHAR
STARTCHAR uni0447
ENCODING 1095
SWIDTH 600 0
DWIDTH 7 0
BBX 5 6 1 0
BITMAP
88
88
88
F8
08
08
ENDCHAR
STARTCHAR uni0448
ENCODING 1096
SWIDTH 600 0
DWIDTH 7 0
BBX 7 6 0 0
BITMAP
D6
D6
D6
D6
D6
FE
ENDCHAR
STARTCHAR uni0449
ENCODING 1097
SWIDTH 600 0
DWIDTH 7 0
BBX 7 8 0 -2
BITMAP
D4
D4
D4
D4
D4
FE
02
02
ENDCHAR
STARTCHAR uni044A
ENCODING 1098
SWIDTH 600 0
DWIDTH 7 0
BBX 7 6 0 0
BITMAP
E0
20
3C
26
26
3C
ENDCHAR
STARTCHAR uni044B
ENCODING 1099
SWIDTH 600 0
DWIDTH 7 0
BBX 7 6 0 0
BITMAP
C6
C6
F6
DE
DE
F6
ENDCHAR
STARTCHAR uni044C
ENCODING 1100
SWIDTH 600 0
DWIDTH 7 0
BBX 5 6 1 0
BITMAP
80
80
F8
88
88
F8
ENDCHAR
STARTCHAR uni044D
ENCODING 1101
SWIDTH 600 0
DWIDTH 7 0
BBX 5 6 1 0
BITMAP
70
88
38
08
98
70
ENDCHAR
STARTCHAR uni044E
ENCODING 1102
SWIDTH 600 0
DWIDTH 7 0
BBX 7 6 0 0
BITMAP
DC
D6
F6
D6
D4
DC
ENDCHAR
STARTCHAR uni044F
ENCODING 1103
SWIDTH 600 0
DWIDTH 7 0
BBX 5 6 1 0
BITMAP
F8
88
88
78
48
C8
ENDCHAR
STARTCHAR uni0450
ENCODING 1104
SWIDTH 600 0
DWIDTH 7 0
BBX 5 10 1 0
BITMAP
40
60
20
00
70
88
F8
80
88
70
ENDCHAR
STARTCHAR uni0451
ENCODING 1105
SWIDTH 600 0
DWIDTH 7 0
BBX 5 9 1 0
BITMAP
50
58
00
70
88
F8
80
88
70
ENDCHAR
STARTCHAR uni0452
ENCODING 1106
SWIDTH 600 0
DWIDTH 7 0
BBX 6 11 0 -2
BITMAP
40
F0
40
5C
64
44
44
44
44
04
3C
ENDCHAR
STARTCHAR uni0453
ENCODING 1107
SWIDTH 600 0
DWIDTH 7 0
BBX 5 10 1 0
BITMAP
20
10
20
00
F8
C0
C0
C0
C0
C0
ENDCHAR
STARTCHAR uni0454
ENCODING 1108
SWIDTH 600 0
DWIDTH 7 0
BBX 5 6 1 0
BITMAP
70
88
E0
80
C8
70
ENDCHAR
STARTCHAR uni0455
ENCODING 1109
SWIDTH 600 0
DWIDTH 7 0
BBX 5 6 1 0
BITMAP
78
88
E0
38
88
F8
ENDCHAR
STARTCHAR uni0456
ENCODING 1110
SWIDTH 600 0
DWIDTH 7 0
BBX 6 9 1 0
BITMAP
30
30
00
F0
30
30
30
30
FC
ENDCHAR
STARTCHAR uni0457
ENCODING 1111
SWIDTH 600 0
DWIDTH 7 0
BBX 6 9 1 0
BITMAP
58
78
00
F0
30
30
30
30
FC
ENDCHAR
STARTCHAR uni0458
ENCODING 1112
SWIDTH 600 0
DWIDTH 7 0
BBX 4 11 1 -2
BITMAP
10
10
00
F0
10
10
10
10
10
10
F0
ENDCHAR
STARTCHAR uni0459
ENCODING 1113
SWIDTH 600 0
DWIDTH 7 0
BBX 7 6 0 0
BITMAP
70
50
5C
52
52
9C
ENDCHAR
STARTCHAR uni045A
ENCODING 1114
SWIDTH 600 0
DWIDTH 7 0
BBX 7 6 0 0
BITMAP
D0
D0
FC
D2
D2
DC
ENDCHAR
STARTCHAR uni045B
ENCODING 1115
SWIDTH 600 0
DWIDTH 7 0
BBX 6 9 0 0
BITMAP
40
F0
40
58
64
44
44
44
44
ENDCHAR
STARTCHAR uni045C
ENCODING 1116
SWIDTH 600 0
DWIDTH 7 0
BBX 5 10 1 0
BITMAP
20
30
20
00
88
90
E0
90
98
88
ENDCHAR
STARTCHAR uni045D
ENCODING 1117
SWIDTH 600 0
DWIDTH 7 0
BBX 5 10 1 0
BITMAP
40
60
20
00
98
98
A8
A8
C8
88
ENDCHAR
STARTCHAR uni045E
ENCODING 1118
SWIDTH 600 0
DWIDTH 7 0
BBX 7 11 0 -2
BITMAP
6C
38
00
C6
44
6C
28
38
10
10
60
ENDCHAR
STARTCHAR uni045F
ENCODING 1119
SWIDTH 600 0
DWIDTH 7 0
BBX 5 8 1 -2
BITMAP
88
88
88
88
88
F8
20
20
ENDCHAR
STARTCHAR uni0472
ENCODING 1138
SWIDTH 600 0
DWIDTH 7 0
BBX 7 8 0 0
BITMAP
38
44
44
FE
C6
44
44
38
ENDCHAR
STARTCHAR uni0473
ENCODING 1139
SWIDTH 600 0
DWIDTH 7 0
BBX 5 6 1 0
BITMAP
70
88
F8
88
88
70
ENDCHAR
STARTCHAR uni0490
ENCODING 1168
SWIDTH 600 0
DWIDTH 7 0
BBX 5 10 1 0
BITMAP
08
08
F8
C0
C0
C0
C0
C0
C0
C0
ENDCHAR
STARTCHAR uni0491
ENCODING 1169
SWIDTH 600 0
DWIDTH 7 0
BBX 5 8 1 0
BITMAP
08
08
F8
C0
C0
C0
C0
C0
ENDCHAR
STARTCHAR uni0492
ENCODING 1170
SWIDTH 600 0
DWIDTH 7 0
BBX 6 8 0 0
BITMAP
3C
20
20
F8
20
20
20
20
ENDCHAR
STARTCHAR uni0493
ENCODING 1171
SWIDTH 600 0
DWIDTH 7 0
BBX 5 6 1 0
BITMAP
78
40
F0
40
40
40
ENDCHAR
STARTCHAR uni0494
ENCODING 1172
SWIDTH 600 0
DWIDTH 7 0
BBX 6 10 1 -2
BITMAP
F8
80
80
F8
88
88
8C
88
08
38
ENDCHAR
STARTCHAR uni0495
ENCODING 1173
SWIDTH 600 0
DWIDTH 7 0
BBX 5 8 1 -2
BITMAP
F0
80
B8
C8
88
88
08
18
ENDCHAR
STARTCHAR uni0496
ENCODING 1174
SWIDTH 600 0
DWIDTH 7 0
BBX 7 10 0 -2
BITMAP
96
D4
54
38
54
D4
94
96
02
02
ENDCHAR
STARTCHAR uni0497
ENCODING 1175
SWIDTH 600 0
DWIDTH 7 0
BBX 7 8 0 -2
BITMAP
96
54
78
54
D4
96
02
02
ENDCHAR
STARTCHAR uni0498
ENCODING 1176
SWIDTH 600 0
DWIDTH 7 0
BBX 6 10 0 -2
BITMAP
78
44
04
38
04
04
44
F8
10
10
ENDCHAR
STARTCHAR uni0499
ENCODING 1177
SWIDTH 600 0
DWIDTH 7 0
BBX 5 8 1 -2
BITMAP
F8
88
70
08
88
F0
20
20
ENDCHAR
STARTCHAR uni049A
ENCODING 1178
SWIDTH 600 0
DWIDTH 7 0
BBX 6 10 1 -2
BITMAP
88
90
90
E0
B0
90
98
8C
04
04
ENDCHAR
STARTCHAR uni049B
ENCODING 1179
SWIDTH 600 0
DWIDTH 7 0
BBX 6 8 1 -2
BITMAP
98
90
E0
90
90
8C
0C
0C
ENDCHAR
STARTCHAR uni049C
ENCODING 1180
SWIDTH 600 0
DWIDTH 7 0
BBX 7 8 0 0
BITMAP
C6
E4
E8
F8
E8
EC
C4
C6
ENDCHAR
STARTCHAR uni049D
ENCODING 1181
SWIDTH 600 0
DWIDTH 7 0
BBX 6 6 1 0
BITMAP
8C
D8
E0
D0
88
8C
ENDCHAR
STARTCHAR uni04A0
ENCODING 1184
SWIDTH 600 0
DWIDTH 7 0
BBX 7 8 0 0
BITMAP
E6
24
2C
38
2C
24
24
26
ENDCHAR
STARTCHAR uni04A1
ENCODING 1185
SWIDTH 600 0
DWIDTH 7 0
BBX 7 6 0 0
BITMAP
E6
2C
38
28
24
26
ENDCHAR
STARTCHAR uni04A2
ENCODING 1186
SWIDTH 600 0
DWIDTH 7 0
BBX 6 10 1 -2
BITMAP
88
88
88
F8
88
88
88
8C
04
04
ENDCHAR
STARTCHAR uni04A3
ENCODING 1187
SWIDTH 600 0
DWIDTH 7 0
BBX 6 8 1 -2
BITMAP
98
98
F8
98
98
9C
04
04
ENDCHAR
STARTCHAR uni04A4
ENCODING 1188
SWIDTH 600 0
DWIDTH 7 0
BBX 7 8 0 0
BITMAP
CE
C8
C8
F8
C8
C8
C8
C8
ENDCHAR
STARTCHAR uni04A5
ENCODING 1189
SWIDTH 600 0
DWIDTH 7 0
BBX 7 6 0 0
BITMAP
DE
D8
F8
D8
D8
D8
ENDCHAR
STARTCHAR uni04AA
ENCODING 1194
SWIDTH 600 0
DWIDTH 7 0
BBX 5 10 1 -2
BITMAP
78
C8
80
80
80
80
C8
78
20
20
ENDCHAR
STARTCHAR uni04AB
ENCODING 1195
SWIDTH 600 0
DWIDTH 7 0
BBX 5 8 1 -2
BITMAP
70
88
80
80
88
78
20
20
ENDCHAR
STARTCHAR uni04AE
ENCODING 1198
SWIDTH 600 0
DWIDTH 7 0
BBX 7 8 0 0
BITMAP
C6
44
6C
28
38
10
10
10
ENDCHAR
STARTCHAR uni04AF
ENCODING 1199
SWIDTH 600 0
DWIDTH 7 0
BBX 7 8 0 -2
BITMAP
C6
44
6C
28
28
10
10
10
ENDCHAR
STARTCHAR uni04B0
ENCODING 1200
SWIDTH 600 0
DWIDTH 7 0
BBX 7 8 0 0
BITMAP
C6
44
6C
28
10
7C
10
10
ENDCHAR
STARTCHAR uni04B1
ENCODING 1201
SWIDTH 600 0
DWIDTH 7 0
BBX 7 8 0 -2
BITMAP
C6
44
6C
28
28
10
7C
10
ENDCHAR
STARTCHAR uni04B2
ENCODING 1202
SWIDTH 600 0
DWIDTH 7 0
BBX 7 10 0 -2
BITMAP
C6
6C
28
38
38
28
4C
C6
02
02
ENDCHAR
STARTCHAR uni04B3
ENCODING 1203
SWIDTH 600 0
DWIDTH 7 0
BBX 7 8 0 -2
BITMAP
44
28
38
38
28
46
82
02
ENDCHAR
STARTCHAR uni04B6
ENCODING 1206
SWIDTH 600 0
DWIDTH 7 0
BBX 7 10 0 -2
BITMAP
C4
C4
C4
44
7C
04
04
06
02
02
ENDCHAR
STARTCHAR uni04B7
ENCODING 1207
SWIDTH 600 0
DWIDTH 7 0
BBX 6 8 1 -2
BITMAP
88
88
98
E8
08
0C
04
04
ENDCHAR
STARTCHAR uni04B8
ENCODING 1208
SWIDTH 600 0
DWIDTH 7 0
BBX 6 8 0 0
BITMAP
C4
C4
D4
54
7C
14
14
04
ENDCHAR
STARTCHAR uni04B9
ENCODING 1209
SWIDTH 600 0
DWIDTH 7 0
BBX 5 6 1 0
BITMAP
88
A8
A8
F8
28
08
ENDCHAR
STARTCHAR uni04BA
ENCODING 1210
SWIDTH 600 0
DWIDTH 7 0
BBX 5 8 1 0
BITMAP
80
80
80
F8
88
88
88
88
ENDCHAR
STARTCHAR uni04BB
ENCODING 1211
SWIDTH 600 0
DWIDTH 7 0
BBX 5 9 1 0
BITMAP
80
80
80
B0
C8
88
88
88
88
ENDCHAR
STARTCHAR uni04C0
ENCODING 1216
SWIDTH 600 0
DWIDTH 7 0
BBX 5 8 1 0
BITMAP
F8
20
20
20
20
20
20
F8
ENDCHAR
STARTCHAR uni04C1
ENCODING 1217
SWIDTH 600 0
DWIDTH 7 0
BBX 7 11 0 0
BITMAP
6C
38
00
92
56
54
38
54
54
D6
92
ENDCHAR
STARTCHAR uni04C2
ENCODING 1218
SWIDTH 600 0
DWIDTH 7 0
BBX 7 9 0 0
BITMAP
6C
38
00
D6
54
3C
54
54
92
ENDCHAR
STARTCHAR uni04CF
ENCODING 1231
SWIDTH 600 0
DWIDTH 7 0
BBX 5 9 1 0
BITMAP
F8
20
20
20
20
20
20
20
F8
ENDCHAR
STARTCHAR uni04D0
ENCODING 1232
SWIDTH 600 0
DWIDTH 7 0
BBX 7 11 0 0
BITMAP
6C
38
00
38
28
28
28
6C
7C
44
C6
ENDCHAR
STARTCHAR uni04D1
ENCODING 1233
SWIDTH 600 0
DWIDTH 7 0
BBX 6 9 1 0
BITMAP
D8
70
00
F0
98
08
F8
88
FC
ENDCHAR
STARTCHAR uni04D2
ENCODING 1234
SWIDTH 600 0
DWIDTH 7 0
BBX 7 11 0 0
BITMAP
28
6C
00
38
28
28
28
6C
7C
44
C6
ENDCHAR
STARTCHAR uni04D3
ENCODING 1235
SWIDTH 600 0
DWIDTH 7 0
BBX 6 9 1 0
BITMAP
D0
D0
00
F0
98
08
F8
88
FC
ENDCHAR
STARTCHAR uni04D4
ENCODING 1236
SWIDTH 600 0
DWIDTH 7 0
BBX 7 8 0 0
BITMAP
3E
38
38
7E
58
78
D8
9E
ENDCHAR
STARTCHAR uni04D5
ENCODING 1237
SWIDTH 600 0
DWIDTH 7 0
BBX 7 6 0 0
BITMAP
6C
92
1E
F0
92
EC
ENDCHAR
STARTCHAR uni04D6
ENCODING 1238
SWIDTH 600 0
DWIDTH 7 0
BBX 5 11 1 0
BITMAP
D8
70
00
F8
80
80
F8
80
80
80
F8
ENDCHAR
STARTCHAR uni04D7
ENCODING 1239
SWIDTH 600 0
DWIDTH 7 0
BBX 5 9 1 0
BITMAP
D8
70
00
70
88
F8
80
88
70
ENDCHAR
STARTCHAR uni04D8
ENCODING 1240
SWIDTH 600 0
DWIDTH 7 0
BBX 7 8 0 0
BITMAP
38
44
44
06
FE
44
44
38
ENDCHAR
STARTCHAR uni04D9
ENCODING 1241
SWIDTH 600 0
DWIDTH 7 0
BBX 5 6 1 0
BITMAP
70
88
08
F8
88
70
ENDCHAR
STARTCHAR uni04DC
ENCODING 1244
SWIDTH 600 0
DWIDTH 7 0
BBX 7 11 0 0
BITMAP
28
6C
00
92
56
54
38
54
54
D6
92
ENDCHAR
STARTCHAR uni04DD
ENCODING 1245
SWIDTH 600 0
DWIDTH 7 0
BBX 7 9 0 0
BITMAP
28
6C
00
D6
54
3C
54
54
92
ENDCHAR
STARTCHAR uni04DE
ENCODING 1246
SWIDTH 600 0
DWIDTH 7 0
BBX 6 11 0 0
BITMAP
68
68
00
78
44
04
38
04
04
44
F8
ENDCHAR
STARTCHAR uni04DF
ENCODING 1247
SWIDTH 600 0
DWIDTH 7 0
BBX 5 9 1 0
BITMAP
D0
D0
00
F8
88
70
08
88
F0
ENDCHAR
STARTCHAR uni04E2
ENCODING 1250
SWIDTH 600 0
DWIDTH 7 0
BBX 5 10 1 0
BITMAP
70
00
88
98
98
A8
A8
C8
C8
88
ENDCHAR
STARTCHAR uni04E3
ENCODING 1251
SWIDTH 600 0
DWIDTH 7 0
BBX 5 8 1 0
BITMAP
70
00
98
98
A8
A8
C8
88
ENDCHAR
STARTCHAR uni04E4
ENCODING 1252
SWIDTH 600 0
DWIDTH 7 0
BBX 5 11 1 0
BITMAP
50
D8
00
88
98
98
A8
A8
C8
C8
88
ENDCHAR
STARTCHAR uni04E5
ENCODING 1253
SWIDTH 600 0
DWIDTH 7 0
BBX 5 9 1 0
BITMAP
50
D8
00
98
98
A8
A8
C8
88
ENDCHAR
STARTCHAR uni04E6
ENCODING 1254
SWIDTH 600 0
DWIDTH 7 0
BBX 7 11 0 0
BITMAP
28
6C
00
38
44
44
C6
C6
44
44
38
ENDCHAR
STARTCHAR uni04E7
ENCODING 1255
SWIDTH 600 0
DWIDTH 7 0
BBX 5 9 1 0
BITMAP
50
D8
00
70
88
88
88
88
70
ENDCHAR
STARTCHAR uni04E8
ENCODING 1256
SWIDTH 600 0
DWIDTH 7 0
BBX 7 8 0 0
BITMAP
38
44
44
FE
C6
44
44
38
ENDCHAR
STARTCHAR uni04E9
ENCODING 1257
SWIDTH 600 0
DWIDTH 7 0
BBX 5 6 1 0
BITMAP
70
88
F8
88
88
70
ENDCHAR
STARTCHAR uni04EE
ENCODING 1262
SWIDTH 600 0
DWIDTH 7 0
BBX 7 10 0 0
BITMAP
38
00
C6
44
6C
28
38
18
10
70
ENDCHAR
STARTCHAR uni04EF
ENCODING 1263
SWIDTH 600 0
DWIDTH 7 0
BBX 7 10 0 -2
BITMAP
38
00
C6
44
6C
28
38
10
10
60
ENDCHAR
STARTCHAR uni04F0
ENCODING 1264
SWIDTH 600 0
DWIDTH 7 0
BBX 7 11 0 0
BITMAP
28
2C
00
C6
44
6C
28
38
18
10
70
ENDCHAR
STARTCHAR uni04F1
ENCODING 1265
SWIDTH 600 0
DWIDTH 7 0
BBX 7 11 0 -2
BITMAP
28
2C
00
C6
44
6C
28
38
10
10
60
ENDCHAR
STARTCHAR uni04F2
ENCODING 1266
SWIDTH 600 0
DWIDTH 7 0
BBX 7 12 0 0
BITMAP
28
34
28
00
C6
44
6C
28
38
18
10
70
ENDCHAR
STARTCHAR uni04F3
ENCODING 1267
SWIDTH 600 0
DWIDTH 7 0
BBX 7 12 0 -2
BITMAP
28
34
28
00
C6
44
6C
28
38
10
10
60
ENDCHAR
STARTCHAR uni04F4
ENCODING 1268
SWIDTH 600 0
DWIDTH 7 0
BBX 6 11 0 0
BITMAP
68
68
00
C4
C4
44
44
7C
04
04
04
ENDCHAR
STARTCHAR uni04F5
ENCODING 1269
SWIDTH 600 0
DWIDTH 7 0
BBX 5 9 1 0
BITMAP
D0
D0
00
88
88
88
F8
08
08
ENDCHAR
STARTCHAR uni04F8
ENCODING 1272
SWIDTH 600 0
DWIDTH 7 0
BBX 7 11 0 0
BITMAP
28
6C
00
C6
C6
C6
F6
DE
DE
DE
F6
ENDCHAR
STARTCHAR uni04F9
ENCODING 1273
SWIDTH 600 0
DWIDTH 7 0
BBX 7 9 0 0
BITMAP
28
6C
00
C6
C6
F6
DE
DE
F6
ENDCHAR
STARTCHAR uni0E3F
ENCODING 3647
SWIDTH 600 0
DWIDTH 7 0
BBX 6 10 1 -1
BITMAP
20
F8
A8
A8
F0
A8
A8
AC
F8
20
ENDCHAR
STARTCHAR Wgrave
ENCODING 7808
SWIDTH 600 0
DWIDTH 7 0
BBX 7 12 0 0
BITMAP
20
30
10
00
82
82
D2
F6
6C
6C
6C
6C
ENDCHAR
STARTCHAR wgrave
ENCODING 7809
SWIDTH 600 0
DWIDTH 7 0
BBX 7 10 0 0
BITMAP
20
30
10
00
92
B2
6E
6C
6C
6C
ENDCHAR
STARTCHAR Wacute
ENCODING 7810
SWIDTH 600 0
DWIDTH 7 0
BBX 7 12 0 0
BITMAP
10
18
10
00
82
82
D2
F6
6C
6C
6C
6C
ENDCHAR
STARTCHAR wacute
ENCODING 7811
SWIDTH 600 0
DWIDTH 7 0
BBX 7 10 0 0
BITMAP
10
18
10
00
92
B2
6E
6C
6C
6C
ENDCHAR
STARTCHAR Wdieresis
ENCODING 7812
SWIDTH 600 0
DWIDTH 7 0
BBX 7 11 0 0
BITMAP
28
6C
00
82
82
D2
F6
6C
6C
6C
6C
ENDCHAR
STARTCHAR wdieresis
ENCODING 7813
SWIDTH 600 0
DWIDTH 7 0
BBX 7 9 0 0
BITMAP
28
6C
00
92
B2
6E
6C
6C
6C
ENDCHAR
STARTCHAR uni1E9E
ENCODING 7838
SWIDTH 600 0
DWIDTH 7 0
BBX 6 8 1 0
BITMAP
F8
88
90
B8
8C
84
CC
B8
ENDCHAR
STARTCHAR uni1EA0
ENCODING 7840
SWIDTH 600 0
DWIDTH 7 0
BBX 7 11 0 -3
BITMAP
38
28
28
28
6C
7C
44
C6
00
10
10
ENDCHAR
STARTCHAR uni1EA1
ENCODING 7841
SWIDTH 600 0
DWIDTH 7 0
BBX 6 9 1 -3
BITMAP
F0
98
08
F8
88
FC
00
20
20
ENDCHAR
STARTCHAR uni1EA2
ENCODING 7842
SWIDTH 600 0
DWIDTH 7 0
BBX 7 12 0 0
BITMAP
38
08
10
00
38
28
28
28
6C
7C
44
C6
ENDCHAR
STARTCHAR uni1EA3
ENCODING 7843
SWIDTH 600 0
DWIDTH 7 0
BBX 6 10 1 0
BITMAP
70
30
20
00
F0
98
08
F8
88
FC
ENDCHAR
STARTCHAR uni1EA4
ENCODING 7844
SWIDTH 600 0
DWIDTH 7 0
BBX 7 14 0 0
BITMAP
04
06
04
38
24
00
38
28
28
28
6C
7C
44
C6
ENDCHAR
STARTCHAR uni1EA5
ENCODING 7845
SWIDTH 600 0
DWIDTH 7 0
BBX 6 12 1 0
BITMAP
08
0C
08
70
90
08
F0
98
08
F8
88
FC
ENDCHAR
STARTCHAR uni1EA6
ENCODING 7846
SWIDTH 600 0
DWIDTH 7 0
BBX 7 14 0 0
BITMAP
80
40
40
38
24
00
38
28
28
28
6C
7C
44
C6
ENDCHAR
STARTCHAR uni1EA7
ENCODING 7847
SWIDTH 600 0
DWIDTH 7 0
BBX 7 12 0 0
BITMAP
80
C0
40
38
48
04
78
4C
04
7C
44
7E
ENDCHAR
STARTCHAR uni1EA8
ENCODING 7848
SWIDTH 600 0
DWIDTH 7 0
BBX 7 13 0 0
BITMAP
0E
04
38
24
00
38
28
28
28
6C
7C
44
C6
ENDCHAR
STARTCHAR uni1EA9
ENCODING 7849
SWIDTH 600 0
DWIDTH 7 0
BBX 6 12 1 0
BITMAP
18
08
08
70
90
08
F0
98
08
F8
88
FC
ENDCHAR
STARTCHAR uni1EAA
ENCODING 7850
SWIDTH 600 0
DWIDTH 7 0
BBX 7 14 0 0
BITMAP
38
4C
00
18
2C
00
38
28
28
28
6C
7C
44
C6
ENDCHAR
STARTCHAR uni1EAB
ENCODING 7851
SWIDTH 600 0
DWIDTH 7 0
BBX 6 12 1 0
BITMAP
50
B8
00
70
D8
00
F0
98
08
F8
88
FC
ENDCHAR
STARTCHAR uni1EAC
ENCODING 7852
SWIDTH 600 0
DWIDTH 7 0
BBX 7 14 0 -3
BITMAP
38
4C
00
38
28
28
28
6C
7C
44
C6
00
10
10
ENDCHAR
STARTCHAR uni1EAD
ENCODING 7853
SWIDTH 600 0
DWIDTH 7 0
BBX 6 12 1 -3
BITMAP
60
90
00
F0
98
08
F8
88
FC
00
20
20
ENDCHAR
STARTCHAR uni1EAE
ENCODING 7854
SWIDTH 600 0
DWIDTH 7 0
BBX 7 14 0 0
BITMAP
10
08
10
64
38
00
38
28
28
28
6C
7C
44
C6
ENDCHAR
STARTCHAR uni1EAF
ENCODING 7855
SWIDTH 600 0
DWIDTH 7 0
BBX 6 12 1 0
BITMAP
20
30
20
98
70
00
F0
98
08
F8
88
FC
ENDCHAR
STARTCHAR uni1EB0
ENCODING 7856
SWIDTH 600 0
DWIDTH 7 0
BBX 7 14 0 0
BITMAP
20
30
10
64
38
00
38
28
28
28
6C
7C
44
C6
ENDCHAR
STARTCHAR uni1EB1
ENCODING 7857
SWIDTH 600 0
DWIDTH 7 0
BBX 6 12 1 0
BITMAP
40
40
20
98
70
00
F0
98
08
F8
88
FC
ENDCHAR
STARTCHAR uni1EB2
ENCODING 7858
SWIDTH 600 0
DWIDTH 7 0
BBX 7 14 0 0
BITMAP
38
18
10
64
38
00
38
28
28
28
6C
7C
44
C6
ENDCHAR
STARTCHAR uni1EB3
ENCODING 7859
SWIDTH 600 0
DWIDTH 7 0
BBX 6 12 1 0
BITMAP
60
30
20
98
70
00
F0
98
08
F8
88
FC
ENDCHAR
STARTCHAR uni1EB4
ENCODING 7860
SWIDTH 600 0
DWIDTH 7 0
BBX 7 14 0 0
BITMAP
38
4C
00
64
38
00
38
28
28
28
6C
7C
44
C6
ENDCHAR
STARTCHAR uni1EB5
ENCODING 7861
SWIDTH 600 0
DWIDTH 7 0
BBX 6 12 1 0
BITMAP
C0
38
00
98
70
00
F0
98
08
F8
88
FC
ENDCHAR
STARTCHAR uni1EB6
ENCODING 7862
SWIDTH 600 0
DWIDTH 7 0
BBX 7 14 0 -3
BITMAP
6C
38
00
38
28
28
28
6C
7C
44
C6
00
10
10
ENDCHAR
STARTCHAR uni1EB7
ENCODING 7863
SWIDTH 600 0
DWIDTH 7 0
BBX 6 12 1 -3
BITMAP
D0
70
00
F0
98
08
F8
88
FC
00
20
20
ENDCHAR
STARTCHAR uni1EB8
ENCODING 7864
SWIDTH 600 0
DWIDTH 7 0
BBX 5 11 1 -3
BITMAP
F8
80
80
F8
80
80
80
F8
00
20
20
ENDCHAR
STARTCHAR uni1EB9
ENCODING 7865
SWIDTH 600 0
DWIDTH 7 0
BBX 5 9 1 -3
BITMAP
70
88
F8
80
88
70
00
20
20
ENDCHAR
STARTCHAR uni1EBA
ENCODING 7866
SWIDTH 600 0
DWIDTH 7 0
BBX 5 12 1 0
BITMAP
70
10
20
00
F8
80
80
F8
80
80
80
F8
ENDCHAR
STARTCHAR uni1EBB
ENCODING 7867
SWIDTH 600 0
DWIDTH 7 0
BBX 5 10 1 0
BITMAP
70
10
20
00
70
88
F8
80
88
70
ENDCHAR
STARTCHAR uni1EBC
ENCODING 7868
SWIDTH 600 0
DWIDTH 7 0
BBX 5 11 1 0
BITMAP
70
B8
00
F8
80
80
F8
80
80
80
F8
ENDCHAR
STARTCHAR uni1EBD
ENCODING 7869
SWIDTH 600 0
DWIDTH 7 0
BBX 5 9 1 0
BITMAP
70
B8
00
70
88
F8
80
88
70
ENDCHAR
STARTCHAR uni1EBE
ENCODING 7870
SWIDTH 600 0
DWIDTH 7 0
BBX 6 14 1 0
BITMAP
08
0C
08
70
48
00
F8
80
80
F8
80
80
80
F8
ENDCHAR
STARTCHAR uni1EBF
ENCODING 7871
SWIDTH 600 0
DWIDTH 7 0
BBX 6 12 1 0
BITMAP
08
0C
08
70
48
00
70
88
F8
80
88
70
ENDCHAR
STARTCHAR uni1EC0
ENCODING 7872
SWIDTH 600 0
DWIDTH 7 0
BBX 6 14 0 0
BITMAP
80
40
40
38
24
00
7C
40
40
7C
40
40
40
7C
ENDCHAR
STARTCHAR uni1EC1
ENCODING 7873
SWIDTH 600 0
DWIDTH 7 0
BBX 6 12 0 0
BITMAP
80
40
40
38
24
00
38
44
7C
40
44
38
ENDCHAR
STARTCHAR uni1EC2
ENCODING 7874
SWIDTH 600 0
DWIDTH 7 0
BBX 6 13 1 0
BITMAP
1C
08
70
48
00
F8
80
80
F8
80
80
80
F8
ENDCHAR
STARTCHAR uni1EC3
ENCODING 7875
SWIDTH 600 0
DWIDTH 7 0
BBX 6 12 1 0
BITMAP
1C
08
08
70
48
00
70
88
F8
80
88
70
ENDCHAR
STARTCHAR uni1EC4
ENCODING 7876
SWIDTH 600 0
DWIDTH 7 0
BBX 5 14 1 0
BITMAP
68
90
00
30
58
00
F8
80
80
F8
80
80
80
F8
ENDCHAR
STARTCHAR uni1EC5
ENCODING 7877
SWIDTH 600 0
DWIDTH 7 0
BBX 5 12 1 0
BITMAP
68
90
00
30
58
00
70
88
F8
80
88
70
ENDCHAR
STARTCHAR uni1EC6
ENCODING 7878
SWIDTH 600 0
DWIDTH 7 0
BBX 5 14 1 -3
BITMAP
70
C8
00
F8
80
80
F8
80
80
80
F8
00
20
20
ENDCHAR
STARTCHAR uni1EC7
ENCODING 7879
SWIDTH 600 0
DWIDTH 7 0
BBX 5 12 1 -3
BITMAP
70
98
00
70
88
F8
80
88
70
00
20
20
ENDCHAR
STARTCHAR uni1EC8
ENCODING 7880
SWIDTH 600 0
DWIDTH 7 0
BBX 5 12 1 0
BITMAP
70
10
20
00
F8
20
20
20
20
20
20
F8
ENDCHAR
STARTCHAR uni1EC9
ENCODING 7881
SWIDTH 600 0
DWIDTH 7 0
BBX 6 10 1 0
BITMAP
30
10
10
00
F0
30
30
30
30
FC
ENDCHAR
STARTCHAR uni1ECA
ENCODING 7882
SWIDTH 600 0
DWIDTH 7 0
BBX 5 11 1 -3
BITMAP
F8
20
20
20
20
20
20
F8
00
20
20
ENDCHAR
STARTCHAR uni1ECB
ENCODING 7883
SWIDTH 600 0
DWIDTH 7 0
BBX 6 12 1 -3
BITMAP
30
30
00
F0
30
30
30
30
FC
00
30
30
ENDCHAR
STARTCHAR uni1ECC
ENCODING 7884
SWIDTH 600 0
DWIDTH 7 0
BBX 7 11 0 -3
BITMAP
38
44
44
C6
C6
44
44
38
00
10
10
ENDCHAR
STARTCHAR uni1ECD
ENCODING 7885
SWIDTH 600 0
DWIDTH 7 0
BBX 5 9 1 -3
BITMAP
70
88
88
88
88
70
00
20
20
ENDCHAR
STARTCHAR uni1ECE
ENCODING 7886
SWIDTH 600 0
DWIDTH 7 0
BBX 7 12 0 0
BITMAP
38
08
10
00
38
44
44
C6
C6
44
44
38
ENDCHAR
STARTCHAR uni1ECF
ENCODING 7887
SWIDTH 600 0
DWIDTH 7 0
BBX 5 10 1 0
BITMAP
70
10
20
00
70
88
88
88
88
70
ENDCHAR
STARTCHAR uni1ED0
ENCODING 7888
SWIDTH 600 0
DWIDTH 7 0
BBX 7 14 0 0
BITMAP
04
06
04
38
24
00
38
44
44
C6
C6
44
44
38
ENDCHAR
STARTCHAR uni1ED1
ENCODING 7889
SWIDTH 600 0
DWIDTH 7 0
BBX 6 12 1 0
BITMAP
08
0C
08
70
48
00
70
88
88
88
88
70
ENDCHAR
STARTCHAR uni1ED2
ENCODING 7890
SWIDTH 600 0
DWIDTH 7 0
BBX 7 14 0 0
BITMAP
80
40
40
38
24
00
38
44
44
C6
C6
44
44
38
ENDCHAR
STARTCHAR uni1ED3
ENCODING 7891
SWIDTH 600 0
DWIDTH 7 0
BBX 6 12 0 0
BITMAP
80
40
40
38
24
00
38
44
44
44
44
38
ENDCHAR
STARTCHAR uni1ED4
ENCODING 7892
SWIDTH 600 0
DWIDTH 7 0
BBX 7 13 0 0
BITMAP
0E
04
38
24
00
38
44
44
C6
C6
44
44
38
ENDCHAR
STARTCHAR uni1ED5
ENCODING 7893
SWIDTH 600 0
DWIDTH 7 0
BBX 6 12 1 0
BITMAP
18
0C
08
70
48
00
70
88
88
88
88
70
ENDCHAR
STARTCHAR uni1ED6
ENCODING 7894
SWIDTH 600 0
DWIDTH 7 0
BBX 7 14 0 0
BITMAP
38
4C
00
18
2C
00
38
44
44
C6
C6
44
44
38
ENDCHAR
STARTCHAR uni1ED7
ENCODING 7895
SWIDTH 600 0
DWIDTH 7 0
BBX 5 12 1 0
BITMAP
70
98
00
30
58
00
70
88
88
88
88
70
ENDCHAR
STARTCHAR uni1ED8
ENCODING 7896
SWIDTH 600 0
DWIDTH 7 0
BBX 7 14 0 -3
BITMAP
38
4C
00
38
44
44
C6
C6
44
44
38
00
10
10
ENDCHAR
STARTCHAR uni1ED9
ENCODING 7897
SWIDTH 600 0
DWIDTH 7 0
BBX 5 12 1 -3
BITMAP
70
98
00
70
88
88
88
88
70
00
20
20
ENDCHAR
STARTCHAR uni1EDA
ENCODING 7898
SWIDTH 600 0
DWIDTH 7 0
BBX 7 12 0 0
BITMAP
10
18
10
02
3E
44
44
C6
C6
44
44
38
ENDCHAR
STARTCHAR uni1EDB
ENCODING 7899
SWIDTH 600 0
DWIDTH 7 0
BBX 6 10 1 0
BITMAP
20
30
20
0C
7C
88
88
88
88
70
ENDCHAR
STARTCHAR uni1EDC
ENCODING 7900
SWIDTH 600 0
DWIDTH 7 0
BBX 7 12 0 0
BITMAP
20
30
10
02
3E
44
44
C6
C6
44
44
38
ENDCHAR
STARTCHAR uni1EDD
ENCODING 7901
SWIDTH 600 0
DWIDTH 7 0
BBX 6 10 1 0
BITMAP
40
60
20
0C
7C
88
88
88
88
70
ENDCHAR
STARTCHAR uni1EDE
ENCODING 7902
SWIDTH 600 0
DWIDTH 7 0
BBX 7 12 0 0
BITMAP
38
08
10
02
3E
44
44
C6
C6
44
44
38
ENDCHAR
STARTCHAR uni1EDF
ENCODING 7903
SWIDTH 600 0
DWIDTH 7 0
BBX 6 10 1 0
BITMAP
70
10
20
0C
7C
88
88
88
88
70
ENDCHAR
STARTCHAR uni1EE0
ENCODING 7904
SWIDTH 600 0
DWIDTH 7 0
BBX 7 11 0 0
BITMAP
28
58
02
3E
44
44
C6
C6
44
44
38
ENDCHAR
STARTCHAR uni1EE1
ENCODING 7905
SWIDTH 600 0
DWIDTH 7 0
BBX 6 9 1 0
BITMAP
50
B0
0C
7C
88
88
88
88
70
ENDCHAR
STARTCHAR uni1EE2
ENCODING 7906
SWIDTH 600 0
DWIDTH 7 0
BBX 7 12 0 -3
BITMAP
02
3E
44
44
C6
C6
44
44
38
00
10
10
ENDCHAR
STARTCHAR uni1EE3
ENCODING 7907
SWIDTH 600 0
DWIDTH 7 0
BBX 6 10 1 -3
BITMAP
0C
7C
88
88
88
88
70
00
20
20
ENDCHAR
STARTCHAR uni1EE4
ENCODING 7908
SWIDTH 600 0
DWIDTH 7 0
BBX 5 11 1 -3
BITMAP
88
88
88
88
88
88
88
70
00
20
20
ENDCHAR
STARTCHAR uni1EE5
ENCODING 7909
SWIDTH 600 0
DWIDTH 7 0
BBX 5 9 1 -3
BITMAP
88
88
88
88
88
F8
00
20
20
ENDCHAR
STARTCHAR uni1EE6
ENCODING 7910
SWIDTH 600 0
DWIDTH 7 0
BBX 5 12 1 0
BITMAP
70
10
20
00
88
88
88
88
88
88
88
70
ENDCHAR
STARTCHAR uni1EE7
ENCODING 7911
SWIDTH 600 0
DWIDTH 7 0
BBX 5 10 1 0
BITMAP
70
10
20
00
88
88
88
88
88
F8
ENDCHAR
STARTCHAR uni1EE8
ENCODING 7912
SWIDTH 600 0
DWIDTH 7 0
BBX 6 12 1 0
BITMAP
20
30
20
04
8C
88
88
88
88
88
88
70
ENDCHAR
STARTCHAR uni1EE9
ENCODING 7913
SWIDTH 600 0
DWIDTH 7 0
BBX 6 10 1 0
BITMAP
20
30
20
04
8C
88
88
88
88
F8
ENDCHAR
STARTCHAR uni1EEA
ENCODING 7914
SWIDTH 600 0
DWIDTH 7 0
BBX 6 12 1 0
BITMAP
40
60
20
04
8C
88
88
88
88
88
88
70
ENDCHAR
STARTCHAR uni1EEB
ENCODING 7915
SWIDTH 600 0
DWIDTH 7 0
BBX 6 10 1 0
BITMAP
40
60
20
04
8C
88
88
88
88
F8
ENDCHAR
STARTCHAR uni1EEC
ENCODING 7916
SWIDTH 600 0
DWIDTH 7 0
BBX 6 12 1 0
BITMAP
70
10
20
04
8C
88
88
88
88
88
88
70
ENDCHAR
STARTCHAR uni1EED
ENCODING 7917
SWIDTH 600 0
DWIDTH 7 0
BBX 6 10 1 0
BITMAP
70
10
20
04
8C
88
88
88
88
F8
ENDCHAR
STARTCHAR uni1EEE
ENCODING 7918
SWIDTH 600 0
DWIDTH 7 0
BBX 6 11 1 0
BITMAP
50
B0
04
8C
88
88
88
88
88
88
70
ENDCHAR
STARTCHAR uni1EEF
ENCODING 7919
SWIDTH 600 0
DWIDTH 7 0
BBX 6 9 1 0
BITMAP
50
B0
04
8C
88
88
88
88
F8
ENDCHAR
STARTCHAR uni1EF0
ENCODING 7920
SWIDTH 600 0
DWIDTH 7 0
BBX 6 12 1 -3
BITMAP
04
8C
88
88
88
88
88
88
70
00
20
20
ENDCHAR
STARTCHAR uni1EF1
ENCODING 7921
SWIDTH 600 0
DWIDTH 7 0
BBX 6 10 1 -3
BITMAP
04
8C
88
88
88
88
F8
00
20
20
ENDCHAR
STARTCHAR Ygrave
ENCODING 7922
SWIDTH 600 0
DWIDTH 7 0
BBX 7 12 0 0
BITMAP
20
30
10
00
C6
44
6C
28
38
10
10
10
ENDCHAR
STARTCHAR ygrave
ENCODING 7923
SWIDTH 600 0
DWIDTH 7 0
BBX 7 12 0 -2
BITMAP
20
30
10
00
C6
44
6C
28
38
10
10
60
ENDCHAR
STARTCHAR uni1EF4
ENCODING 7924
SWIDTH 600 0
DWIDTH 7 0
BBX 7 11 0 -3
BITMAP
C6
44
6C
28
38
10
10
10
00
10
10
ENDCHAR
STARTCHAR uni1EF5
ENCODING 7925
SWIDTH 600 0
DWIDTH 7 0
BBX 7 9 0 -3
BITMAP
C6
44
6C
28
38
10
10
64
04
ENDCHAR
STARTCHAR uni1EF6
ENCODING 7926
SWIDTH 600 0
DWIDTH 7 0
BBX 7 12 0 0
BITMAP
38
08
10
00
C6
44
6C
28
38
10
10
10
ENDCHAR
STARTCHAR uni1EF7
ENCODING 7927
SWIDTH 600 0
DWIDTH 7 0
BBX 7 12 0 -2
BITMAP
38
08
10
00
C6
44
6C
28
38
10
10
60
ENDCHAR
STARTCHAR uni1EF8
ENCODING 7928
SWIDTH 600 0
DWIDTH 7 0
BBX 7 11 0 0
BITMAP
38
5C
00
C6
44
6C
28
38
10
10
10
ENDCHAR
STARTCHAR uni1EF9
ENCODING 7929
SWIDTH 600 0
DWIDTH 7 0
BBX 7 11 0 -2
BITMAP
38
5C
00
C6
44
6C
28
38
10
10
60
ENDCHAR
STARTCHAR endash
ENCODING 8211
SWIDTH 600 0
DWIDTH 7 0
BBX 5 1 1 3
BITMAP
F8
ENDCHAR
STARTCHAR emdash
ENCODING 8212
SWIDTH 600 0
DWIDTH 7 0
BBX 7 1 0 3
BITMAP
FE
ENDCHAR
STARTCHAR quoteleft
ENCODING 8216
SWIDTH 600 0
DWIDTH 7 0
BBX 3 4 2 5
BITMAP
60
40
40
C0
ENDCHAR
STARTCHAR quoteright
ENCODING 8217
SWIDTH 600 0
DWIDTH 7 0
BBX 3 4 2 5
BITMAP
60
40
40
80
ENDCHAR
STARTCHAR quotesinglbase
ENCODING 8218
SWIDTH 600 0
DWIDTH 7 0
BBX 3 4 2 -2
BITMAP
60
40
C0
80
ENDCHAR
STARTCHAR quotedblleft
ENCODING 8220
SWIDTH 600 0
DWIDTH 7 0
BBX 5 4 1 5
BITMAP
48
58
D8
D0
ENDCHAR
STARTCHAR quotedblright
ENCODING 8221
SWIDTH 600 0
DWIDTH 7 0
BBX 5 4 1 5
BITMAP
68
D8
90
90
ENDCHAR
STARTCHAR quotedblbase
ENCODING 8222
SWIDTH 600 0
DWIDTH 7 0
BBX 5 4 1 -2
BITMAP
D8
D8
90
90
ENDCHAR
STARTCHAR dagger
ENCODING 8224
SWIDTH 600 0
DWIDTH 7 0
BBX 5 11 1 -2
BITMAP
20
20
20
F8
20
20
20
20
20
20
20
ENDCHAR
STARTCHAR daggerdbl
ENCODING 8225
SWIDTH 600 0
DWIDTH 7 0
BBX 5 11 1 -2
BITMAP
20
20
20
F8
20
20
20
20
F8
20
20
ENDCHAR
STARTCHAR bullet
ENCODING 8226
SWIDTH 600 0
DWIDTH 7 0
BBX 3 3 2 2
BITMAP
E0
E0
E0
ENDCHAR
STARTCHAR ellipsis
ENCODING 8230
SWIDTH 600 0
DWIDTH 7 0
BBX 7 2 0 0
BITMAP
D6
D6
ENDCHAR
STARTCHAR perthousand
ENCODING 8240
SWIDTH 600 0
DWIDTH 7 0
BBX 7 8 0 0
BITMAP
E0
A0
E4
38
40
3E
4A
3E
ENDCHAR
STARTCHAR guilsinglleft
ENCODING 8249
SWIDTH 600 0
DWIDTH 7 0
BBX 3 5 2 1
BITMAP
20
C0
80
C0
20
ENDCHAR
STARTCHAR guilsinglright
ENCODING 8250
SWIDTH 600 0
DWIDTH 7 0
BBX 3 5 2 1
BITMAP
80
40
20
40
80
ENDCHAR
STARTCHAR fraction
ENCODING 8260
SWIDTH 600 0
DWIDTH 7 0
BBX 7 8 0 0
BITMAP
02
04
08
00
00
20
40
80
ENDCHAR
STARTCHAR uni2070
ENCODING 8304
SWIDTH 600 0
DWIDTH 7 0
BBX 3 4 2 4
BITMAP
E0
E0
A0
E0
ENDCHAR
STARTCHAR uni2074
ENCODING 8308
SWIDTH 600 0
DWIDTH 7 0
BBX 3 4 2 4
BITMAP
60
A0
E0
20
ENDCHAR
STARTCHAR uni2075
ENCODING 8309
SWIDTH 600 0
DWIDTH 7 0
BBX 3 4 2 4
BITMAP
E0
E0
20
E0
ENDCHAR
STARTCHAR uni2076
ENCODING 8310
SWIDTH 600 0
DWIDTH 7 0
BBX 3 4 2 4
BITMAP
60
E0
A0
E0
ENDCHAR
STARTCHAR uni2077
ENCODING 8311
SWIDTH 600 0
DWIDTH 7 0
BBX 3 4 2 4
BITMAP
E0
A0
40
40
ENDCHAR
STARTCHAR uni2078
ENCODING 8312
SWIDTH 600 0
DWIDTH 7 0
BBX 3 4 2 4
BITMAP
E0
40
A0
E0
ENDCHAR
STARTCHAR uni2079
ENCODING 8313
SWIDTH 600 0
DWIDTH 7 0
BBX 3 4 2 4
BITMAP
E0
A0
E0
C0
ENDCHAR
STARTCHAR uni2080
ENCODING 8320
SWIDTH 600 0
DWIDTH 7 0
BBX 3 4 2 0
BITMAP
E0
E0
A0
E0
ENDCHAR
STARTCHAR uni2081
ENCODING 8321
SWIDTH 600 0
DWIDTH 7 0
BBX 3 4 2 0
BITMAP
C0
40
40
E0
ENDCHAR
STARTCHAR uni2082
ENCODING 8322
SWIDTH 600 0
DWIDTH 7 0
BBX 3 4 2 0
BITMAP
E0
A0
40
E0
ENDCHAR
STARTCHAR uni2083
ENCODING 8323
SWIDTH 600 0
DWIDTH 7 0
BBX 3 4 2 0
BITMAP
E0
E0
A0
E0
ENDCHAR
STARTCHAR uni2084
ENCODING 8324
SWIDTH 600 0
DWIDTH 7 0
BBX 3 4 2 0
BITMAP
60
A0
E0
20
ENDCHAR
STARTCHAR uni2085
ENCODING 8325
SWIDTH 600 0
DWIDTH 7 0
BBX 3 4 2 0
BITMAP
E0
E0
20
E0
ENDCHAR
STARTCHAR uni2086
ENCODING 8326
SWIDTH 600 0
DWIDTH 7 0
BBX 3 4 2 0
BITMAP
60
E0
A0
E0
ENDCHAR
STARTCHAR uni2087
ENCODING 8327
SWIDTH 600 0
DWIDTH 7 0
BBX 3 4 2 0
BITMAP
E0
A0
40
40
ENDCHAR
STARTCHAR uni2088
ENCODING 8328
SWIDTH 600 0
DWIDTH 7 0
BBX 3 4 2 0
BITMAP
E0
40
A0
E0
ENDCHAR
STARTCHAR uni2089
ENCODING 8329
SWIDTH 600 0
DWIDTH 7 0
BBX 3 4 2 0
BITMAP
E0
A0
E0
C0
ENDCHAR
STARTCHAR uni20A1
ENCODING 8353
SWIDTH 600 0
DWIDTH 7 0
BBX 6 10 1 -1
BITMAP
30
78
B8
D4
D0
D0
D0
EC
78
60
ENDCHAR
STARTCHAR uni20A4
ENCODING 8356
SWIDTH 600 0
DWIDTH 7 0
BBX 7 8 0 0
BITMAP
3C
66
40
F8
20
F8
60
7C
ENDCHAR
STARTCHAR uni20A6
ENCODING 8358
SWIDTH 600 0
DWIDTH 7 0
BBX 7 8 0 0
BITMAP
64
64
DE
54
F6
4C
4C
4C
ENDCHAR
STARTCHAR uni20A8
ENCODING 8360
SWIDTH 600 0
DWIDTH 7 0
BBX 7 8 0 0
BITMAP
F0
D0
D6
F8
E4
D6
D2
DE
ENDCHAR
STARTCHAR uni20A9
ENCODING 8361
SWIDTH 600 0
DWIDTH 7 0
BBX 7 8 0 0
BITMAP
44
44
FE
74
EE
6C
6C
6C
ENDCHAR
STARTCHAR uni20AA
ENCODING 8362
SWIDTH 600 0
DWIDTH 7 0
BBX 7 8 0 0
BITMAP
F2
CA
EA
EA
EA
EA
E4
FC
ENDCHAR
STARTCHAR uni20AB
ENCODING 8363
SWIDTH 600 0
DWIDTH 7 0
BBX 6 9 1 0
BITMAP
08
3C
08
E8
98
88
F8
00
F8
ENDCHAR
STARTCHAR Euro
ENCODING 8364
SWIDTH 600 0
DWIDTH 7 0
BBX 6 8 1 0
BITMAP
78
88
F4
80
F0
80
CC
78
ENDCHAR
STARTCHAR uni20AD
ENCODING 8365
SWIDTH 600 0
DWIDTH 7 0
BBX 7 8 0 0
BITMAP
46
48
58
FE
58
48
4C
46
ENDCHAR
STARTCHAR uni20AE
ENCODING 8366
SWIDTH 600 0
DWIDTH 7 0
BBX 7 8 0 0
BITMAP
FE
10
14
38
54
38
50
10
ENDCHAR
STARTCHAR uni20B1
ENCODING 8369
SWIDTH 600 0
DWIDTH 7 0
BBX 7 8 0 0
BITMAP
78
44
FE
44
78
40
40
40
ENDCHAR
STARTCHAR uni20B2
ENCODING 8370
SWIDTH 600 0
DWIDTH 7 0
BBX 6 10 0 -1
BITMAP
08
38
54
50
D0
DC
54
54
38
20
ENDCHAR
STARTCHAR uni20B4
ENCODING 8372
SWIDTH 600 0
DWIDTH 7 0
BBX 7 8 0 0
BITMAP
38
44
FE
10
FE
40
64
38
ENDCHAR
STARTCHAR uni20B5
ENCODING 8373
SWIDTH 600 0
DWIDTH 7 0
BBX 6 10 1 -1
BITMAP
10
78
A8
A0
A0
A0
A0
AC
70
40
ENDCHAR
STARTCHAR uni20B8
ENCODING 8376
SWIDTH 600 0
DWIDTH 7 0
BBX 7 8 0 0
BITMAP
FE
00
FE
10
10
10
10
10
ENDCHAR
STARTCHAR uni20B9
ENCODING 8377
SWIDTH 600 0
DWIDTH 7 0
BBX 6 8 1 0
BITMAP
FC
10
FC
10
E0
60
30
18
ENDCHAR
STARTCHAR uni20BA
ENCODING 8378
SWIDTH 600 0
DWIDTH 7 0
BBX 7 8 0 0
BITMAP
20
28
30
E8
36
E6
24
38
ENDCHAR
STARTCHAR uni20BD
ENCODING 8381
SWIDTH 600 0
DWIDTH 7 0
BBX 7 8 0 0
BITMAP
7C
64
66
64
FC
60
F8
60
ENDCHAR
STARTCHAR uni20BF
ENCODING 8383
SWIDTH 600 0
DWIDTH 7 0
BBX 5 10 1 -1
BITMAP
50
F0
88
88
F0
88
88
88
F0
50
ENDCHAR
STARTCHAR uni2113
ENCODING 8467
SWIDTH 600 0
DWIDTH 7 0
BBX 5 9 1 0
BITMAP
70
50
58
50
70
60
C0
48
70
ENDCHAR
STARTCHAR uni2116
ENCODING 8470
SWIDTH 600 0
DWIDTH 7 0
BBX 7 8 0 0
BITMAP
D6
DA
D6
D0
BE
B0
B0
B0
ENDCHAR
STARTCHAR trademark
ENCODING 8482
SWIDTH 600 0
DWIDTH 7 0
BBX 6 3 0 5
BITMAP
F4
5C
5C
ENDCHAR
STARTCHAR Omega
ENCODING 8486
SWIDTH 600 0
DWIDTH 7 0
BBX 7 8 0 0
BITMAP
38
44
44
46
44
44
28
EE
ENDCHAR
STARTCHAR uni212E
ENCODING 8494
SWIDTH 600 0
DWIDTH 7 0
BBX 7 8 0 0
BITMAP
38
44
C6
FE
C0
C4
44
38
ENDCHAR
STARTCHAR uni2150
ENCODING 8528
SWIDTH 600 0
DWIDTH 7 0
BBX 7 8 0 0
BITMAP
C2
44
48
E0
0E
2C
44
8C
ENDCHAR
STARTCHAR uni2151
ENCODING 8529
SWIDTH 600 0
DWIDTH 7 0
BBX 7 8 0 0
BITMAP
C2
44
48
E0
0E
2A
4E
8C
ENDCHAR
STARTCHAR uni2153
ENCODING 8531
SWIDTH 600 0
DWIDTH 7 0
BBX 7 8 0 0
BITMAP
C2
44
48
E0
0E
24
52
8E
ENDCHAR
STARTCHAR uni2154
ENCODING 8532
SWIDTH 600 0
DWIDTH 7 0
BBX 7 8 0 0
BITMAP
62
A4
48
E0
0E
24
52
8E
ENDCHAR
STARTCHAR uni2155
ENCODING 8533
SWIDTH 600 0
DWIDTH 7 0
BBX 7 8 0 0
BITMAP
C2
44
48
E0
0E
2E
42
8E
ENDCHAR
STARTCHAR uni2156
ENCODING 8534
SWIDTH 600 0
DWIDTH 7 0
BBX 7 8 0 0
BITMAP
62
A4
48
E0
0E
2E
42
8E
ENDCHAR
STARTCHAR uni2157
ENCODING 8535
SWIDTH 600 0
DWIDTH 7 0
BBX 7 8 0 0
BITMAP
62
C4
A8
60
0E
2E
42
8E
ENDCHAR
STARTCHAR uni2158
ENCODING 8536
SWIDTH 600 0
DWIDTH 7 0
BBX 7 8 0 0
BITMAP
62
A4
E8
20
0E
2E
42
8E
ENDCHAR
STARTCHAR uni2159
ENCODING 8537
SWIDTH 600 0
DWIDTH 7 0
BBX 7 8 0 0
BITMAP
C2
44
48
E0
04
2E
4A
8E
ENDCHAR
STARTCHAR uni215A
ENCODING 8538
SWIDTH 600 0
DWIDTH 7 0
BBX 7 8 0 0
BITMAP
E2
E4
28
E0
04
2E
4A
8E
ENDCHAR
STARTCHAR uni215B
ENCODING 8539
SWIDTH 600 0
DWIDTH 7 0
BBX 7 8 0 0
BITMAP
C2
44
48
E0
0E
2C
4A
8E
ENDCHAR
STARTCHAR uni215C
ENCODING 8540
SWIDTH 600 0
DWIDTH 7 0
BBX 7 8 0 0
BITMAP
62
C4
A8
60
0E
2C
4A
8E
ENDCHAR
STARTCHAR uni215D
ENCODING 8541
SWIDTH 600 0
DWIDTH 7 0
BBX 7 8 0 0
BITMAP
E2
E4
28
E0
0E
2C
4A
8E
ENDCHAR
STARTCHAR uni215E
ENCODING 8542
SWIDTH 600 0
DWIDTH 7 0
BBX 7 8 0 0
BITMAP
E2
A4
48
40
0E
2C
4A
8E
ENDCHAR
STARTCHAR uni2190
ENCODING 8592
SWIDTH 600 0
DWIDTH 7 0
BBX 7 5 0 2
BITMAP
20
60
FE
60
20
ENDCHAR
STARTCHAR uni2191
ENCODING 8593
SWIDTH 600 0
DWIDTH 7 0
BBX 5 8 1 0
BITMAP
20
70
A8
20
20
20
20
20
ENDCHAR
STARTCHAR uni2192
ENCODING 8594
SWIDTH 600 0
DWIDTH 7 0
BBX 7 5 0 2
BITMAP
08
0C
FE
0C
08
ENDCHAR
STARTCHAR uni2193
ENCODING 8595
SWIDTH 600 0
DWIDTH 7 0
BBX 5 8 1 0
BITMAP
20
20
20
20
20
A8
70
20
ENDCHAR
STARTCHAR uni2194
ENCODING 8596
SWIDTH 600 0
DWIDTH 7 0
BBX 7 5 0 2
BITMAP
28
44
FE
44
28
ENDCHAR
STARTCHAR uni2195
ENCODING 8597
SWIDTH 600 0
DWIDTH 7 0
BBX 5 8 1 0
BITMAP
20
70
A8
20
20
A8
70
20
ENDCHAR
STARTCHAR uni2196
ENCODING 8598
SWIDTH 600 0
DWIDTH 7 0
BBX 6 6 1 1
BITMAP
E0
C0
E0
B0
18
0C
ENDCHAR
STARTCHAR uni2197
ENCODING 8599
SWIDTH 600 0
DWIDTH 7 0
BBX 6 6 0 1
BITMAP
1C
0C
1C
34
60
C0
ENDCHAR
STARTCHAR uni2198
ENCODING 8600
SWIDTH 600 0
DWIDTH 7 0
BBX 6 6 0 1
BITMAP
C0
60
34
1C
0C
1C
ENDCHAR
STARTCHAR uni2199
ENCODING 8601
SWIDTH 600 0
DWIDTH 7 0
BBX 6 6 1 1
BITMAP
0C
18
B0
E0
C0
E0
ENDCHAR
STARTCHAR uni21A9
ENCODING 8617
SWIDTH 600 0
DWIDTH 7 0
BBX 7 7 0 1
BITMAP
08
0E
22
62
FC
60
20
ENDCHAR
STARTCHAR uni21AA
ENCODING 8618
SWIDTH 600 0
DWIDTH 7 0
BBX 7 7 0 1
BITMAP
20
E0
88
8C
7E
0C
08
ENDCHAR
STARTCHAR uni21B0
ENCODING 8624
SWIDTH 600 0
DWIDTH 7 0
BBX 6 8 0 0
BITMAP
30
60
FC
64
34
04
04
04
ENDCHAR
STARTCHAR uni21B1
ENCODING 8625
SWIDTH 600 0
DWIDTH 7 0
BBX 6 8 1 0
BITMAP
30
18
FC
98
B0
80
80
80
ENDCHAR
STARTCHAR uni21B2
ENCODING 8626
SWIDTH 600 0
DWIDTH 7 0
BBX 6 8 0 0
BITMAP
04
04
04
34
64
FC
60
30
ENDCHAR
STARTCHAR uni21B3
ENCODING 8627
SWIDTH 600 0
DWIDTH 7 0
BBX 6 8 1 0
BITMAP
80
80
80
B0
98
FC
18
30
ENDCHAR
STARTCHAR uni21B6
ENCODING 8630
SWIDTH 600 0
DWIDTH 7 0
BBX 7 7 0 1
BITMAP
1C
22
22
20
A8
78
30
ENDCHAR
STARTCHAR uni21B7
ENCODING 8631
SWIDTH 600 0
DWIDTH 7 0
BBX 7 7 0 1
BITMAP
70
88
88
08
2A
3C
18
ENDCHAR
STARTCHAR uni21BA
ENCODING 8634
SWIDTH 600 0
DWIDTH 7 0
BBX 7 8 0 0
BITMAP
1E
78
54
82
82
C6
44
38
ENDCHAR
STARTCHAR uni21BB
ENCODING 8635
SWIDTH 600 0
DWIDTH 7 0
BBX 7 8 0 0
BITMAP
F0
5C
54
82
82
C6
44
38
ENDCHAR
STARTCHAR uni21C4
ENCODING 8644
SWIDTH 600 0
DWIDTH 7 0
BBX 7 9 0 0
BITMAP
08
0C
FE
0C
28
60
FE
60
20
ENDCHAR
STARTCHAR uni21C6
ENCODING 8646
SWIDTH 600 0
DWIDTH 7 0
BBX 7 9 0 0
BITMAP
20
60
FE
60
28
0C
FE
0C
08
ENDCHAR
STARTCHAR partialdiff
ENCODING 8706
SWIDTH 600 0
DWIDTH 7 0
BBX 5 8 1 0
BITMAP
E0
30
78
88
88
88
88
70
ENDCHAR
STARTCHAR Delta
ENCODING 8710
SWIDTH 600 0
DWIDTH 7 0
BBX 7 8 0 0
BITMAP
38
28
28
6C
6C
44
44
FE
ENDCHAR
STARTCHAR product
ENCODING 8719
SWIDTH 600 0
DWIDTH 7 0
BBX 5 8 1 0
BITMAP
F8
88
88
88
88
88
88
88
ENDCHAR
STARTCHAR summation
ENCODING 8721
SWIDTH 600 0
DWIDTH 7 0
BBX 5 10 1 -2
BITMAP
F8
80
40
60
20
10
20
40
C0
F8
ENDCHAR
STARTCHAR minus
ENCODING 8722
SWIDTH 600 0
DWIDTH 7 0
BBX 5 1 1 3
BITMAP
F8
ENDCHAR
STARTCHAR radical
ENCODING 8730
SWIDTH 600 0
DWIDTH 7 0
BBX 7 8 0 0
BITMAP
02
04
C4
64
2C
28
28
18
ENDCHAR
STARTCHAR infinity
ENCODING 8734
SWIDTH 600 0
DWIDTH 7 0
BBX 7 5 0 1
BITMAP
6C
92
92
92
6C
ENDCHAR
STARTCHAR integral
ENCODING 8747
SWIDTH 600 0
DWIDTH 7 0
BBX 6 11 0 -2
BITMAP
1C
10
10
10
10
10
10
10
10
10
F0
ENDCHAR
STARTCHAR approxequal
ENCODING 8776
SWIDTH 600 0
DWIDTH 7 0
BBX 7 4 0 2
BITMAP
76
DC
76
DC
ENDCHAR
STARTCHAR notequal
ENCODING 8800
SWIDTH 600 0
DWIDTH 7 0
BBX 5 5 1 1
BITMAP
18
F8
20
F8
C0
ENDCHAR
STARTCHAR lessequal
ENCODING 8804
SWIDTH 600 0
DWIDTH 7 0
BBX 5 7 1 0
BITMAP
08
70
80
E0
18
00
F8
ENDCHAR
STARTCHAR greaterequal
ENCODING 8805
SWIDTH 600 0
DWIDTH 7 0
BBX 5 7 1 0
BITMAP
80
70
18
38
C0
00
F8
ENDCHAR
STARTCHAR lozenge
ENCODING 9674
SWIDTH 600 0
DWIDTH 7 0
BBX 7 8 0 0
BITMAP
10
28
6C
44
C6
6C
28
10
ENDCHAR
STARTCHAR uni2713
ENCODING 10003
SWIDTH 600 0
DWIDTH 7 0
BBX 7 9 0 0
BITMAP
02
06
04
C4
48
48
78
30
30
ENDCHAR
STARTCHAR uni274C
ENCODING 10060
SWIDTH 600 0
DWIDTH 7 0
BBX 7 8 0 0
BITMAP
C6
6C
28
10
38
28
44
C6
ENDCHAR
STARTCHAR uni2B0E
ENCODING 11022
SWIDTH 600 0
DWIDTH 7 0
BBX 7 6 0 1
BITMAP
F8
08
08
2E
1C
08
ENDCHAR
STARTCHAR uni2B0F
ENCODING 11023
SWIDTH 600 0
DWIDTH 7 0
BBX 7 6 0 1
BITMAP
08
1C
2E
08
08
F8
ENDCHAR
STARTCHAR uni2B10
ENCODING 11024
SWIDTH 600 0
DWIDTH 7 0
BBX 7 6 0 1
BITMAP
3E
20
20
E8
70
20
ENDCHAR
STARTCHAR uni2B11
ENCODING 11025
SWIDTH 600 0
DWIDTH 7 0
BBX 7 6 0 1
BITMAP
20
70
E8
20
20
3E
ENDCHAR
STARTCHAR uniEBE7
ENCODING 60391
SWIDTH 600 0
DWIDTH 7 0
BBX 5 12 1 -3
BITMAP
70
50
70
20
60
50
A8
00
20
50
70
70
ENDCHAR
STARTCHAR dieresisacute
ENCODING 63191
SWIDTH 0 0
DWIDTH 0 0
BBX 4 5 -2 7
BITMAP
20
30
40
F0
F0
ENDCHAR
STARTCHAR dieresisgrave
ENCODING 63192
SWIDTH 0 0
DWIDTH 0 0
BBX 4 5 -2 7
BITMAP
40
C0
20
F0
F0
ENDCHAR
STARTCHAR fi
ENCODING 64257
SWIDTH 600 0
DWIDTH 7 0
BBX 6 9 0 0
BITMAP
74
44
40
FC
44
44
44
44
44
ENDCHAR
STARTCHAR fl
ENCODING 64258
SWIDTH 600 0
DWIDTH 7 0
BBX 6 9 0 0
BITMAP
74
44
44
F4
44
44
44
44
44
ENDCHAR
STARTCHAR .notdef
ENCODING -1
SWIDTH 600 0
DWIDTH 7 0
BBX 7 9 0 0
BITMAP
FE
82
82
82
82
82
82
82
FE
ENDCHAR
STARTCHAR g.alt02
ENCODING -1
SWIDTH 600 0
DWIDTH 7 0
BBX 6 8 1 -2
BITMAP
7C
88
88
70
80
78
8C
F8
ENDCHAR
STARTCHAR zero.numr
ENCODING -1
SWIDTH 600 0
DWIDTH 7 0
BBX 3 4 2 4
BITMAP
E0
E0
A0
E0
ENDCHAR
STARTCHAR one.numr
ENCODING -1
SWIDTH 600 0
DWIDTH 7 0
BBX 3 4 2 4
BITMAP
C0
40
40
E0
ENDCHAR
STARTCHAR two.numr
ENCODING -1
SWIDTH 600 0
DWIDTH 7 0
BBX 3 4 2 4
BITMAP
E0
A0
40
E0
ENDCHAR
STARTCHAR three.numr
ENCODING -1
SWIDTH 600 0
DWIDTH 7 0
BBX 3 4 2 4
BITMAP
E0
40
A0
E0
ENDCHAR
STARTCHAR four.numr
ENCODING -1
SWIDTH 600 0
DWIDTH 7 0
BBX 3 4 2 4
BITMAP
60
A0
E0
20
ENDCHAR
STARTCHAR five.numr
ENCODING -1
SWIDTH 600 0
DWIDTH 7 0
BBX 3 4 2 4
BITMAP
E0
E0
20
E0
ENDCHAR
STARTCHAR six.numr
ENCODING -1
SWIDTH 600 0
DWIDTH 7 0
BBX 3 4 2 4
BITMAP
60
E0
A0
E0
ENDCHAR
STARTCHAR seven.numr
ENCODING -1
SWIDTH 600 0
DWIDTH 7 0
BBX 3 4 2 4
BITMAP
E0
A0
40
40
ENDCHAR
STARTCHAR eight.numr
ENCODING -1
SWIDTH 600 0
DWIDTH 7 0
BBX 3 4 2 4
BITMAP
E0
40
A0
E0
ENDCHAR
STARTCHAR nine.numr
ENCODING -1
SWIDTH 600 0
DWIDTH 7 0
BBX 3 4 2 4
BITMAP
E0
A0
E0
C0
ENDCHAR
STARTCHAR zero.dnom
ENCODING -1
SWIDTH 600 0
DWIDTH 7 0
BBX 3 4 2 0
BITMAP
E0
E0
A0
E0
ENDCHAR
STARTCHAR one.dnom
ENCODING -1
SWIDTH 600 0
DWIDTH 7 0
BBX 3 4 2 0
BITMAP
C0
40
40
E0
ENDCHAR
STARTCHAR two.dnom
ENCODING -1
SWIDTH 600 0
DWIDTH 7 0
BBX 3 4 2 0
BITMAP
E0
A0
40
E0
ENDCHAR
STARTCHAR three.dnom
ENCODING -1
SWIDTH 600 0
DWIDTH 7 0
BBX 3 4 2 0
BITMAP
E0
40
A0
E0
ENDCHAR
STARTCHAR four.dnom
ENCODING -1
SWIDTH 600 0
DWIDTH 7 0
BBX 3 4 2 0
BITMAP
60
A0
E0
20
ENDCHAR
STARTCHAR five.dnom
ENCODING -1
SWIDTH 600 0
DWIDTH 7 0
BBX 3 4 2 0
BITMAP
E0
E0
20
E0
ENDCHAR
STARTCHAR six.dnom
ENCODING -1
SWIDTH 600 0
DWIDTH 7 0
BBX 3 4 2 0
BITMAP
60
E0
A0
E0
ENDCHAR
STARTCHAR seven.dnom
ENCODING -1
SWIDTH 600 0
DWIDTH 7 0
BBX 3 4 2 0
BITMAP
E0
A0
40
40
ENDCHAR
STARTCHAR eight.dnom
ENCODING -1
SWIDTH 600 0
DWIDTH 7 0
BBX 3 4 2 0
BITMAP
E0
40
A0
E0
ENDCHAR
STARTCHAR nine.dnom
ENCODING -1
SWIDTH 600 0
DWIDTH 7 0
BBX 3 4 2 0
BITMAP
E0
A0
E0
C0
ENDCHAR
STARTCHAR tilde.alt01
ENCODING -1
SWIDTH 600 0
DWIDTH 7 0
BBX 3 2 2 7
BITMAP
E0
E0
ENDCHAR
STARTCHAR breve.cyrl
ENCODING -1
SWIDTH 600 0
DWIDTH 7 0
BBX 5 2 1 7
BITMAP
D8
70
ENDCHAR
STARTCHAR ringacute
ENCODING -1
SWIDTH 600 0
DWIDTH 7 0
BBX 3 6 2 7
BITMAP
20
40
00
E0
A0
E0
ENDCHAR
STARTCHAR breveacute
ENCODING -1
SWIDTH 0 0
DWIDTH 0 0
BBX 4 5 -2 7
BITMAP
20
30
40
90
60
ENDCHAR
STARTCHAR brevegrave
ENCODING -1
SWIDTH 0 0
DWIDTH 0 0
BBX 4 5 -2 7
BITMAP
40
C0
20
90
60
ENDCHAR
STARTCHAR brevehook
ENCODING -1
SWIDTH 0 0
DWIDTH 0 0
BBX 4 5 -2 7
BITMAP
60
20
40
90
60
ENDCHAR
STARTCHAR brevetilde
ENCODING -1
SWIDTH 0 0
DWIDTH 0 0
BBX 4 5 -2 7
BITMAP
C0
30
00
90
60
ENDCHAR
STARTCHAR dieresiscaron
ENCODING -1
SWIDTH 0 0
DWIDTH 0 0
BBX 4 5 -2 7
BITMAP
90
60
00
F0
F0
ENDCHAR
STARTCHAR circumflexacute
ENCODING -1
SWIDTH 0 0
DWIDTH 0 0
BBX 5 5 -2 7
BITMAP
10
08
10
60
90
ENDCHAR
STARTCHAR circumflexbreve
ENCODING -1
SWIDTH 0 0
DWIDTH 0 0
BBX 4 5 -2 7
BITMAP
90
60
00
60
90
ENDCHAR
STARTCHAR circumflexgrave
ENCODING -1
SWIDTH 0 0
DWIDTH 0 0
BBX 5 5 -3 7
BITMAP
80
80
40
30
48
ENDCHAR
STARTCHAR circumflexhook
ENCODING -1
SWIDTH 0 0
DWIDTH 0 0
BBX 5 5 -2 7
BITMAP
18
08
10
60
90
ENDCHAR
STARTCHAR dieresismacron
ENCODING -1
SWIDTH 0 0
DWIDTH 0 0
BBX 4 4 -2 7
BITMAP
F0
00
F0
F0
ENDCHAR
STARTCHAR circumflextilde
ENCODING -1
SWIDTH 0 0
DWIDTH 0 0
BBX 4 5 -2 7
BITMAP
D0
B0
00
60
90
ENDCHAR
STARTCHAR tilde.case
ENCODING -1
SWIDTH 600 0
DWIDTH 7 0
BBX 5 2 1 9
BITMAP
70
B8
ENDCHAR
STARTCHAR tilde.alt01.case
ENCODING -1
SWIDTH 600 0
DWIDTH 7 0
BBX 3 2 2 9
BITMAP
E0
E0
ENDCHAR
STARTCHAR macron.case
ENCODING -1
SWIDTH 600 0
DWIDTH 7 0
BBX 3 1 2 9
BITMAP
E0
ENDCHAR
STARTCHAR dotaccent.case
ENCODING -1
SWIDTH 600 0
DWIDTH 7 0
BBX 1 2 3 9
BITMAP
80
80
ENDCHAR
STARTCHAR dieresis.case
ENCODING -1
SWIDTH 600 0
DWIDTH 7 0
BBX 5 2 1 9
BITMAP
50
D8
ENDCHAR
STARTCHAR hungarumlaut.case
ENCODING -1
SWIDTH 600 0
DWIDTH 7 0
BBX 4 3 2 9
BITMAP
A0
D0
A0
ENDCHAR
STARTCHAR acute.case
ENCODING -1
SWIDTH 600 0
DWIDTH 7 0
BBX 2 3 3 9
BITMAP
80
C0
80
ENDCHAR
STARTCHAR grave.case
ENCODING -1
SWIDTH 600 0
DWIDTH 7 0
BBX 2 3 2 9
BITMAP
80
C0
40
ENDCHAR
STARTCHAR circumflex.case
ENCODING -1
SWIDTH 600 0
DWIDTH 7 0
BBX 5 2 1 9
BITMAP
70
98
ENDCHAR
STARTCHAR caron.case
ENCODING -1
SWIDTH 600 0
DWIDTH 7 0
BBX 5 2 1 9
BITMAP
D8
70
ENDCHAR
STARTCHAR breve.case
ENCODING -1
SWIDTH 600 0
DWIDTH 7 0
BBX 5 2 1 9
BITMAP
D8
70
ENDCHAR
STARTCHAR breve.cyrl_case
ENCODING -1
SWIDTH 600 0
DWIDTH 7 0
BBX 5 2 1 9
BITMAP
D8
70
ENDCHAR
STARTCHAR ring.case
ENCODING -1
SWIDTH 600 0
DWIDTH 7 0
BBX 3 3 2 9
BITMAP
E0
A0
E0
ENDCHAR
STARTCHAR ringacute.case
ENCODING -1
SWIDTH 600 0
DWIDTH 7 0
BBX 3 6 2 9
BITMAP
20
40
00
E0
A0
E0
ENDCHAR
STARTCHAR uni0309.case
ENCODING -1
SWIDTH 0 0
DWIDTH 0 0
BBX 2 3 -1 9
BITMAP
C0
40
40
ENDCHAR
STARTCHAR breveacute.case
ENCODING -1
SWIDTH 0 0
DWIDTH 0 0
BBX 4 5 -2 9
BITMAP
20
30
40
90
60
ENDCHAR
STARTCHAR brevegrave.case
ENCODING -1
SWIDTH 0 0
DWIDTH 0 0
BBX 4 5 -2 9
BITMAP
40
C0
20
90
60
ENDCHAR
STARTCHAR brevehook.case
ENCODING -1
SWIDTH 0 0
DWIDTH 0 0
BBX 4 5 -2 9
BITMAP
60
20
40
90
60
ENDCHAR
STARTCHAR brevetilde.case
ENCODING -1
SWIDTH 0 0
DWIDTH 0 0
BBX 4 5 -2 9
BITMAP
D0
B0
00
90
60
ENDCHAR
STARTCHAR dieresisacute.case
ENCODING -1
SWIDTH 0 0
DWIDTH 0 0
BBX 4 5 -2 9
BITMAP
20
30
40
F0
F0
ENDCHAR
STARTCHAR dieresiscaron.case
ENCODING -1
SWIDTH 0 0
DWIDTH 0 0
BBX 4 5 -2 9
BITMAP
90
60
00
F0
F0
ENDCHAR
STARTCHAR dieresisgrave.case
ENCODING -1
SWIDTH 0 0
DWIDTH 0 0
BBX 4 5 -2 9
BITMAP
40
C0
20
F0
F0
ENDCHAR
STARTCHAR circumflexacute.case
ENCODING -1
SWIDTH 0 0
DWIDTH 0 0
BBX 5 5 -2 9
BITMAP
10
08
10
60
90
ENDCHAR
STARTCHAR circumflexbreve.case
ENCODING -1
SWIDTH 0 0
DWIDTH 0 0
BBX 4 5 -2 9
BITMAP
90
60
00
60
90
ENDCHAR
STARTCHAR circumflexgrave.case
ENCODING -1
SWIDTH 0 0
DWIDTH 0 0
BBX 5 5 -3 9
BITMAP
80
80
40
30
48
ENDCHAR
STARTCHAR circumflexhook.case
ENCODING -1
SWIDTH 0 0
DWIDTH 0 0
BBX 5 4 -2 9
BITMAP
18
08
70
90
ENDCHAR
STARTCHAR dieresismacron.case
ENCODING -1
SWIDTH 0 0
DWIDTH 0 0
BBX 4 4 -2 9
BITMAP
F0
00
F0
F0
ENDCHAR
STARTCHAR circumflextilde.case
ENCODING -1
SWIDTH 0 0
DWIDTH 0 0
BBX 4 5 -2 9
BITMAP
D0
B0
00
60
90
ENDCHAR
ENDFONT
